<svg width="30" height="30" viewBox="0 0 30 30" fill="none" xmlns="http://www.w3.org/2000/svg">
<rect width="30" height="30" fill="white"/>
<path d="M10.3441 8.91482C10.3441 11.6294 12.5425 13.8299 15.2542 13.8299C17.966 13.8299 20.1642 11.6294 20.1642 8.91484C20.1642 6.20055 17.966 4 15.2542 4C12.5423 4 10.3441 6.20055 10.3441 8.91484V8.91482ZM18.1807 14.018C17.3363 14.6219 16.3319 14.9721 15.2542 14.9721C14.1764 14.9721 13.1721 14.6219 12.3276 14.018C8.65104 15.3837 6 19.2516 6 23.8103C6 24.0776 6.00906 24.3427 6.02694 24.6049H24.4813C24.4993 24.3404 24.5083 24.0754 24.5082 23.8103C24.5082 19.2516 21.8574 15.3837 18.1806 14.018H18.1807Z" fill="#2A68BF"/>
<circle cx="21" cy="22" r="6" fill="white"/>
<path d="M21.6839 18.4912V20.5418H24.5317V18.4912H21.6839ZM27.0694 23.7888H25.3842V25.8398H28.2324V23.7888H27.0694ZM19.1467 23.7888H17.9836V25.8398H20.8318V23.7888H19.668H19.1467ZM22.8469 23.7888H21.6839V25.8398H24.5317V23.7888H23.3687H22.8469ZM26.8083 21.9042H23.3687V20.8494H22.8469V21.9042H19.1467V23.4538H19.668V22.4627H22.8469V23.4538H23.3687V22.4627H26.5481V23.4538H27.0694V21.9042H26.8083Z" fill="#2A68BF"/>
</svg>
