<svg width="64" height="64" viewBox="0 0 64 64" fill="none" xmlns="http://www.w3.org/2000/svg">
<path fill-rule="evenodd" clip-rule="evenodd" d="M22.3999 14.4038C31.7414 14.4038 39.3142 12.4073 39.3142 9.94457C39.3142 7.48181 31.7414 5.48535 22.3999 5.48535C13.0584 5.48535 5.4856 7.48181 5.4856 9.94457C5.4856 12.4073 13.0584 14.4038 22.3999 14.4038ZM22.2653 16.3901C30.1392 16.3901 36.7461 14.7626 38.5517 12.5677C38.6942 12.8977 38.7496 13.2714 38.6912 13.6574L34.8523 38.994C34.8487 39.0179 34.8281 39.0356 34.804 39.0356C34.7835 39.0356 34.7655 39.0478 34.7579 39.0669C34.0153 40.9388 28.7057 42.3903 22.2659 42.3903C15.8269 42.3903 10.5177 40.9391 9.77415 39.0675C9.76644 39.0481 9.74808 39.0356 9.72721 39.0356C9.70258 39.0356 9.68165 39.0176 9.67796 38.9932L5.8392 13.6574C5.7807 13.2714 5.83622 12.8976 5.9787 12.5675C7.78417 14.7625 14.3911 16.3901 22.2653 16.3901Z" fill="url(#paint0_linear_5554_22766)"/>
<circle cx="36.6628" cy="36.663" r="21.32" stroke="#8CAFEA" stroke-width="0.4"/>
<g filter="url(#filter0_bi_5554_22766)">
<circle cx="36.6628" cy="36.663" r="21.12" fill="url(#paint1_linear_5554_22766)" fill-opacity="0.4"/>
<circle cx="36.6628" cy="36.663" r="20.82" stroke="url(#paint2_linear_5554_22766)" stroke-opacity="0.6" stroke-width="0.6"/>
</g>
<g filter="url(#filter1_d_5554_22766)">
<path fill-rule="evenodd" clip-rule="evenodd" d="M36.3314 27.4287C40.4224 27.4287 43.6457 28.5444 43.6457 29.9081V33.8752C43.5217 35.2389 40.2985 36.3546 36.3314 36.3546C32.3643 36.3546 29.1411 35.2389 29.0171 33.8752V29.9081C29.0171 28.5444 32.2403 27.4287 36.3314 27.4287ZM30.8767 29.7842C30.8767 30.7759 33.3561 31.6437 36.3314 31.6437C39.3067 31.6437 41.7861 30.8999 41.7861 29.7842C41.7861 28.7924 39.3067 27.9246 36.3314 27.9246C33.3561 27.9246 30.8767 28.7924 30.8767 29.7842ZM36.3314 37.9677C32.2403 37.9677 29.0171 36.852 29.0171 35.4883V39.4554C29.1411 40.819 32.3643 41.9348 36.3314 41.9348C40.2984 41.9348 43.5217 40.819 43.6457 39.4554V35.4883C43.6457 36.852 40.4224 37.9677 36.3314 37.9677ZM36.3314 43.4225C32.2403 43.4225 29.0171 42.3068 29.0171 40.9431V44.7862C29.1411 46.1499 32.3643 47.2656 36.3314 47.2656C40.2984 47.2656 43.5217 46.1499 43.6457 44.7862V40.8191C43.6457 42.3068 40.4224 43.4225 36.3314 43.4225Z" fill="white"/>
</g>
<defs>
<filter id="filter0_bi_5554_22766" x="11.5428" y="11.543" width="50.24" height="50.2402" filterUnits="userSpaceOnUse" color-interpolation-filters="sRGB">
<feFlood flood-opacity="0" result="BackgroundImageFix"/>
<feGaussianBlur in="BackgroundImage" stdDeviation="2"/>
<feComposite in2="SourceAlpha" operator="in" result="effect1_backgroundBlur_5554_22766"/>
<feBlend mode="normal" in="SourceGraphic" in2="effect1_backgroundBlur_5554_22766" result="shape"/>
<feColorMatrix in="SourceAlpha" type="matrix" values="0 0 0 0 0 0 0 0 0 0 0 0 0 0 0 0 0 0 127 0" result="hardAlpha"/>
<feOffset dy="4"/>
<feGaussianBlur stdDeviation="4"/>
<feComposite in2="hardAlpha" operator="arithmetic" k2="-1" k3="1"/>
<feColorMatrix type="matrix" values="0 0 0 0 0.231308 0 0 0 0 0.222083 0 0 0 0 0.683333 0 0 0 0.2 0"/>
<feBlend mode="normal" in2="shape" result="effect2_innerShadow_5554_22766"/>
</filter>
<filter id="filter1_d_5554_22766" x="27.0171" y="25.8287" width="18.6285" height="23.8369" filterUnits="userSpaceOnUse" color-interpolation-filters="sRGB">
<feFlood flood-opacity="0" result="BackgroundImageFix"/>
<feColorMatrix in="SourceAlpha" type="matrix" values="0 0 0 0 0 0 0 0 0 0 0 0 0 0 0 0 0 0 127 0" result="hardAlpha"/>
<feOffset dy="0.4"/>
<feGaussianBlur stdDeviation="1"/>
<feComposite in2="hardAlpha" operator="out"/>
<feColorMatrix type="matrix" values="0 0 0 0 0.364706 0 0 0 0 0.564706 0 0 0 0 0.85098 0 0 0 0.5 0"/>
<feBlend mode="normal" in2="BackgroundImageFix" result="effect1_dropShadow_5554_22766"/>
<feBlend mode="normal" in="SourceGraphic" in2="effect1_dropShadow_5554_22766" result="shape"/>
</filter>
<linearGradient id="paint0_linear_5554_22766" x1="17.3882" y1="12.3766" x2="27.4122" y2="34.9296" gradientUnits="userSpaceOnUse">
<stop stop-color="#185FC0"/>
<stop offset="1" stop-color="#3578DC"/>
</linearGradient>
<linearGradient id="paint1_linear_5554_22766" x1="12.0228" y1="14.3696" x2="50.7428" y2="57.783" gradientUnits="userSpaceOnUse">
<stop stop-color="#8CB3E4"/>
<stop offset="0.999806" stop-color="#BEDBF1"/>
</linearGradient>
<linearGradient id="paint2_linear_5554_22766" x1="55.8628" y1="50.103" x2="24.6104" y2="19.3677" gradientUnits="userSpaceOnUse">
<stop stop-color="#2859AC"/>
<stop offset="0.692708" stop-color="#98BDFC"/>
</linearGradient>
</defs>
</svg>
