<svg width="16" height="14" viewBox="0 0 16 14" fill="none" xmlns="http://www.w3.org/2000/svg">
<path d="M8.00005 7.65485C9.52945 7.65485 10.958 7.51615 12.2868 7.23885C13.6157 6.96125 14.6649 6.55155 15.4322 6.00965V7.65485C15.4322 8.10055 15.0996 8.51345 14.4352 8.89395C13.7707 9.27445 12.8678 9.57675 11.7253 9.79905C10.584 10.0212 9.34185 10.1329 8.00005 10.1329C6.65815 10.1329 5.41605 10.0212 4.27365 9.79905C3.13225 9.57565 2.22935 9.27445 1.56385 8.89395C0.89935 8.51345 0.56665 8.10055 0.56665 7.65485V6.00956C1.33405 6.55146 2.38335 6.96115 3.71215 7.23875C5.04215 7.51615 6.47075 7.65485 8.00005 7.65485ZM8.00005 11.2978C9.52945 11.2978 10.958 11.1591 12.2868 10.8816C13.6157 10.6043 14.6649 10.1945 15.4322 9.65245V11.2978C15.4322 11.7433 15.0996 12.1564 14.4352 12.5369C13.7707 12.9172 12.8678 13.2197 11.7253 13.4418C10.584 13.6641 9.34185 13.7756 8.00005 13.7756C6.65815 13.7756 5.41605 13.6641 4.27365 13.4418C3.13125 13.2197 2.22825 12.9172 1.56385 12.5369C0.89935 12.1564 0.56665 11.7433 0.56665 11.2978V9.65245C1.33405 10.1945 2.38335 10.6043 3.71215 10.8816C5.04215 11.1592 6.47075 11.2978 8.00005 11.2978ZM8.00005 0.222656C9.34185 0.222656 10.584 0.334356 11.7265 0.556556C12.8689 0.778756 13.7718 1.08116 14.4363 1.46156C15.1006 1.84206 15.4334 2.25496 15.4334 2.70046V3.93946C15.4334 4.38496 15.1006 4.79776 14.4363 5.17836C13.7718 5.55886 12.8689 5.86015 11.7265 6.08345C10.5841 6.30545 9.34195 6.41615 8.00005 6.41615C6.65815 6.41615 5.41605 6.30436 4.27365 6.08226C3.13125 5.86006 2.22825 5.55765 1.56385 5.17716C0.89935 4.79666 0.56665 4.38386 0.56665 3.93826V2.70046C0.56665 2.25496 0.89945 1.84206 1.56385 1.46156C2.22825 1.08116 3.13115 0.778656 4.27365 0.556556C5.41615 0.334356 6.65825 0.222656 8.00005 0.222656Z" fill="#2A68BF"/>
</svg>
