<svg width="24" height="20" viewBox="0 0 24 20" fill="none" xmlns="http://www.w3.org/2000/svg">
<path d="M12.0901 9.87779L12.7672 5.97229C12.7672 5.94182 12.7554 5.91261 12.7342 5.89107C12.713 5.86952 12.6843 5.85742 12.6544 5.85742L8.5918 11.3711C8.5918 11.4859 8.5918 11.4859 8.70465 11.4859H11.7516L11.0745 15.5063C11.0745 15.6212 11.1873 15.6212 11.1873 15.5063L15.3628 9.76292C15.3628 9.64805 15.3628 9.64805 15.2499 9.64805H12.0901V9.87779Z" fill="#2A68BF" fill-opacity="0.45"/>
<path fill-rule="evenodd" clip-rule="evenodd" d="M18.4156 3.9055H23.0424C23.4738 3.9055 23.8235 4.25521 23.8235 4.6866V19.1369C23.8235 19.5683 23.4738 19.918 23.0424 19.918H0.7811C0.349711 19.918 0 19.5683 0 19.1369V4.6866C0 4.25521 0.34971 3.9055 0.781099 3.9055H5.0174C5.02105 3.8992 5.0248 3.89293 5.02864 3.88667L7.19169 0.371727C7.33385 0.140719 7.58567 0 7.85692 0H15.5761C15.8473 0 16.0991 0.140719 16.2413 0.371727L18.4043 3.88667C18.4062 3.88971 18.408 3.89275 18.4099 3.8958C18.4118 3.89902 18.4137 3.90226 18.4156 3.9055ZM5.96263 5.5458H1.64031V18.2777H22.1832V5.5458H17.4704L17.0018 4.7373L15.0959 1.64031H8.33704L6.43121 4.73728L5.96263 5.5458Z" fill="#2A68BF" fill-opacity="0.45"/>
</svg>
