<svg width="205" height="23" viewBox="0 0 205 23" fill="none" xmlns="http://www.w3.org/2000/svg">
<path d="M11.0323 17.5728H0V1H3.4945V14.3604H11.0323V17.5728ZM23.2965 16.0802C20.8676 17.9154 18.2192 18.4228 15.4055 17.3397C12.5433 16.2391 10.9881 13.1349 11.5043 9.82368C11.9826 6.75201 14.5105 4.42958 17.5939 4.22854C20.5366 4.10537 23.189 6.0917 24.055 9.06738C24.2551 9.77923 24.0952 10.0539 23.4732 10.3251C21.2582 11.2907 19.067 12.3191 16.8687 13.3272C16.5844 13.456 16.3096 13.6041 15.9246 13.7969C17.6117 15.0272 19.4915 14.8746 21.9827 13.3662L24.2108 15.405C23.8598 15.664 23.5753 15.8688 23.2965 16.0802ZM16.8963 7.55419C15.4023 8.15052 14.6853 9.43179 14.9427 11.1942L20.5259 8.76865C20.1554 8.1447 19.5871 7.68007 18.9223 7.45763C18.2574 7.23518 17.5395 7.26941 16.8963 7.55419ZM37.7922 17.3018H34.3999V13.4691C34.3999 12.4672 34.4052 11.4648 34.3999 10.463C34.3867 8.66076 33.441 7.42706 32.0564 7.39591C30.2726 7.35428 28.898 8.64065 28.8593 10.4676C28.8191 12.3704 28.8478 14.2746 28.8464 16.1783V17.3072H25.4622V4.80928H28.517L28.6539 5.82836C29.7846 5.14181 31.024 4.67783 32.3117 4.45902C35.1047 4.07337 37.5241 5.89094 37.7509 8.93061C37.9537 11.6781 37.7922 14.4564 37.7922 17.3018ZM45.6593 17.6549C42.0914 17.7047 39.1605 14.6874 39.113 10.9152V10.8416C39.1002 7.07283 41.9745 4.00286 45.5395 3.97851C49.1045 3.95416 52.0161 6.98392 52.0496 10.753C52.0826 14.5221 49.2249 17.609 45.6602 17.6549H45.6593ZM45.5977 7.38487C43.8013 7.38911 42.3453 8.92579 42.3383 10.8247C42.3354 11.7266 42.6717 12.5931 43.2733 13.2335C43.571 13.5503 43.925 13.8021 44.3148 13.9743C44.7047 14.1467 45.123 14.236 45.5456 14.2375H45.5992C47.3582 14.2216 48.7891 12.7343 48.834 10.8747C48.8249 8.97761 47.3914 7.43187 45.5977 7.38487ZM56.8381 17.5847L51.4804 4.80108H55.321L58.4509 12.8721L61.5333 4.80108H65.1369L60.395 17.5844H56.8384L56.8381 17.5847ZM77.7568 10.7745C77.7955 14.5455 74.9388 17.6382 71.3716 17.6863C67.8044 17.7345 64.8741 14.72 64.8218 10.9489V10.8286C64.8077 7.05215 67.6919 3.97879 71.2638 3.96379C74.8358 3.94878 77.7429 6.99807 77.7571 10.7742H77.7568V10.7745ZM71.2655 7.38656C69.473 7.43923 68.0428 8.98497 68.0329 10.8807C68.0855 12.7393 69.517 14.2222 71.2757 14.2398C73.0528 14.2624 74.5103 12.7575 74.5318 10.8787V10.8206C74.5173 8.92297 73.0606 7.39138 71.2655 7.38656Z" fill="white"/>
<path d="M99.6152 12.7363L102.418 13.625C101.988 15.1875 101.272 16.3496 100.27 17.1113C99.2734 17.8665 98.0072 18.2441 96.4707 18.2441C94.5697 18.2441 93.0072 17.5964 91.7832 16.3008C90.5592 14.9987 89.9473 13.2214 89.9473 10.9688C89.9473 8.58594 90.5625 6.73698 91.793 5.42188C93.0234 4.10026 94.6413 3.43945 96.6465 3.43945C98.3978 3.43945 99.8203 3.95703 100.914 4.99219C101.565 5.60417 102.053 6.48307 102.379 7.62891L99.5176 8.3125C99.3483 7.57031 98.9935 6.98438 98.4531 6.55469C97.9193 6.125 97.2682 5.91016 96.5 5.91016C95.4388 5.91016 94.5762 6.29102 93.9121 7.05273C93.2546 7.81445 92.9258 9.04818 92.9258 10.7539C92.9258 12.5638 93.2513 13.8529 93.9023 14.6211C94.5534 15.3893 95.3997 15.7734 96.4414 15.7734C97.2096 15.7734 97.8704 15.5293 98.4238 15.041C98.9772 14.5527 99.3743 13.7845 99.6152 12.7363ZM103.453 18L108.346 10.5293L103.912 3.68359H107.291L110.162 8.2832L112.975 3.68359H116.324L111.871 10.6367L116.764 18H113.277L110.104 13.0488L106.92 18H103.453ZM127.408 12.7363L130.211 13.625C129.781 15.1875 129.065 16.3496 128.062 17.1113C127.066 17.8665 125.8 18.2441 124.264 18.2441C122.363 18.2441 120.8 17.5964 119.576 16.3008C118.352 14.9987 117.74 13.2214 117.74 10.9688C117.74 8.58594 118.355 6.73698 119.586 5.42188C120.816 4.10026 122.434 3.43945 124.439 3.43945C126.191 3.43945 127.613 3.95703 128.707 4.99219C129.358 5.60417 129.846 6.48307 130.172 7.62891L127.311 8.3125C127.141 7.57031 126.786 6.98438 126.246 6.55469C125.712 6.125 125.061 5.91016 124.293 5.91016C123.232 5.91016 122.369 6.29102 121.705 7.05273C121.048 7.81445 120.719 9.04818 120.719 10.7539C120.719 12.5638 121.044 13.8529 121.695 14.6211C122.346 15.3893 123.193 15.7734 124.234 15.7734C125.003 15.7734 125.663 15.5293 126.217 15.041C126.77 14.5527 127.167 13.7845 127.408 12.7363ZM138.688 14.6992L141.422 15.1582C141.07 16.1608 140.514 16.9258 139.752 17.4531C138.997 17.974 138.049 18.2344 136.91 18.2344C135.107 18.2344 133.772 17.6452 132.906 16.4668C132.223 15.5228 131.881 14.3314 131.881 12.8926C131.881 11.1738 132.33 9.82943 133.229 8.85938C134.127 7.88281 135.263 7.39453 136.637 7.39453C138.18 7.39453 139.397 7.9056 140.289 8.92773C141.181 9.94336 141.607 11.5026 141.568 13.6055H134.693C134.713 14.4193 134.934 15.054 135.357 15.5098C135.781 15.959 136.308 16.1836 136.939 16.1836C137.369 16.1836 137.73 16.0664 138.023 15.832C138.316 15.5977 138.538 15.2201 138.688 14.6992ZM138.844 11.9258C138.824 11.1315 138.619 10.5293 138.229 10.1191C137.838 9.70247 137.363 9.49414 136.803 9.49414C136.204 9.49414 135.709 9.71224 135.318 10.1484C134.928 10.5846 134.736 11.1771 134.742 11.9258H138.844ZM143.814 18V3.68359H146.559V18H143.814ZM155.387 14.6992L158.121 15.1582C157.77 16.1608 157.213 16.9258 156.451 17.4531C155.696 17.974 154.749 18.2344 153.609 18.2344C151.806 18.2344 150.471 17.6452 149.605 16.4668C148.922 15.5228 148.58 14.3314 148.58 12.8926C148.58 11.1738 149.029 9.82943 149.928 8.85938C150.826 7.88281 151.962 7.39453 153.336 7.39453C154.879 7.39453 156.096 7.9056 156.988 8.92773C157.88 9.94336 158.307 11.5026 158.268 13.6055H151.393C151.412 14.4193 151.633 15.054 152.057 15.5098C152.48 15.959 153.007 16.1836 153.639 16.1836C154.068 16.1836 154.43 16.0664 154.723 15.832C155.016 15.5977 155.237 15.2201 155.387 14.6992ZM155.543 11.9258C155.523 11.1315 155.318 10.5293 154.928 10.1191C154.537 9.70247 154.062 9.49414 153.502 9.49414C152.903 9.49414 152.408 9.71224 152.018 10.1484C151.627 10.5846 151.435 11.1771 151.441 11.9258H155.543ZM163.141 18H160.396V7.62891H162.945V9.10352C163.382 8.4069 163.772 7.94792 164.117 7.72656C164.469 7.50521 164.866 7.39453 165.309 7.39453C165.934 7.39453 166.536 7.56706 167.115 7.91211L166.266 10.3047C165.803 10.0052 165.374 9.85547 164.977 9.85547C164.592 9.85547 164.267 9.96289 164 10.1777C163.733 10.3861 163.521 10.7669 163.365 11.3203C163.215 11.8737 163.141 13.0326 163.141 14.7969V18ZM170.357 10.793L167.867 10.3438C168.147 9.34115 168.629 8.59896 169.312 8.11719C169.996 7.63542 171.012 7.39453 172.359 7.39453C173.583 7.39453 174.495 7.54102 175.094 7.83398C175.693 8.12044 176.113 8.48828 176.354 8.9375C176.601 9.38021 176.725 10.1973 176.725 11.3887L176.695 14.5918C176.695 15.5033 176.738 16.1771 176.822 16.6133C176.913 17.043 177.079 17.5052 177.32 18H174.605C174.534 17.8177 174.446 17.5475 174.342 17.1895C174.296 17.0267 174.264 16.9193 174.244 16.8672C173.775 17.3229 173.274 17.6647 172.74 17.8926C172.206 18.1204 171.637 18.2344 171.031 18.2344C169.964 18.2344 169.12 17.9447 168.502 17.3652C167.89 16.7858 167.584 16.0534 167.584 15.168C167.584 14.582 167.724 14.0612 168.004 13.6055C168.284 13.1432 168.674 12.7917 169.176 12.5508C169.684 12.3034 170.413 12.0885 171.363 11.9062C172.646 11.6654 173.535 11.4408 174.029 11.2324V10.959C174.029 10.4316 173.899 10.0573 173.639 9.83594C173.378 9.60807 172.887 9.49414 172.164 9.49414C171.676 9.49414 171.295 9.5918 171.021 9.78711C170.748 9.97591 170.527 10.3112 170.357 10.793ZM174.029 13.0195C173.678 13.1367 173.121 13.2767 172.359 13.4395C171.598 13.6022 171.1 13.7617 170.865 13.918C170.507 14.1719 170.328 14.4941 170.328 14.8848C170.328 15.2689 170.471 15.6009 170.758 15.8809C171.044 16.1608 171.409 16.3008 171.852 16.3008C172.346 16.3008 172.818 16.138 173.268 15.8125C173.6 15.5651 173.818 15.2624 173.922 14.9043C173.993 14.6699 174.029 14.224 174.029 13.5664V13.0195ZM184.195 7.62891V9.81641H182.32V13.9961C182.32 14.8424 182.337 15.3372 182.369 15.4805C182.408 15.6172 182.49 15.7311 182.613 15.8223C182.743 15.9134 182.9 15.959 183.082 15.959C183.336 15.959 183.704 15.8711 184.186 15.6953L184.42 17.8242C183.782 18.0977 183.059 18.2344 182.252 18.2344C181.757 18.2344 181.311 18.153 180.914 17.9902C180.517 17.821 180.224 17.6061 180.035 17.3457C179.853 17.0788 179.726 16.7207 179.654 16.2715C179.596 15.9525 179.566 15.3079 179.566 14.3379V9.81641H178.307V7.62891H179.566V5.56836L182.32 3.9668V7.62891H184.195ZM185.465 12.668C185.465 11.7565 185.689 10.8743 186.139 10.0215C186.588 9.16862 187.223 8.51758 188.043 8.06836C188.87 7.61914 189.791 7.39453 190.807 7.39453C192.376 7.39453 193.661 7.9056 194.664 8.92773C195.667 9.94336 196.168 11.2292 196.168 12.7852C196.168 14.3542 195.66 15.6562 194.645 16.6914C193.635 17.7201 192.363 18.2344 190.826 18.2344C189.876 18.2344 188.967 18.0195 188.102 17.5898C187.242 17.1602 186.588 16.5319 186.139 15.7051C185.689 14.8717 185.465 13.8594 185.465 12.668ZM188.277 12.8145C188.277 13.8431 188.521 14.6309 189.01 15.1777C189.498 15.7246 190.1 15.998 190.816 15.998C191.533 15.998 192.132 15.7246 192.613 15.1777C193.102 14.6309 193.346 13.8366 193.346 12.7949C193.346 11.7793 193.102 10.998 192.613 10.4512C192.132 9.9043 191.533 9.63086 190.816 9.63086C190.1 9.63086 189.498 9.9043 189.01 10.4512C188.521 10.998 188.277 11.7858 188.277 12.8145ZM200.953 18H198.209V7.62891H200.758V9.10352C201.194 8.4069 201.585 7.94792 201.93 7.72656C202.281 7.50521 202.678 7.39453 203.121 7.39453C203.746 7.39453 204.348 7.56706 204.928 7.91211L204.078 10.3047C203.616 10.0052 203.186 9.85547 202.789 9.85547C202.405 9.85547 202.079 9.96289 201.812 10.1777C201.546 10.3861 201.334 10.7669 201.178 11.3203C201.028 11.8737 200.953 13.0326 200.953 14.7969V18Z" fill="white"/>
</svg>
