<svg width="116" height="16" viewBox="0 0 116 16" fill="none" xmlns="http://www.w3.org/2000/svg">
<path d="M10.6152 9.73633L13.418 10.625C12.9883 12.1875 12.2721 13.3496 11.2695 14.1113C10.2734 14.8665 9.00716 15.2441 7.4707 15.2441C5.56966 15.2441 4.00716 14.5964 2.7832 13.3008C1.55924 11.9987 0.947266 10.2214 0.947266 7.96875C0.947266 5.58594 1.5625 3.73698 2.79297 2.42188C4.02344 1.10026 5.64128 0.439453 7.64648 0.439453C9.39779 0.439453 10.8203 0.957031 11.9141 1.99219C12.5651 2.60417 13.0534 3.48307 13.3789 4.62891L10.5176 5.3125C10.3483 4.57031 9.99349 3.98438 9.45312 3.55469C8.91927 3.125 8.26823 2.91016 7.5 2.91016C6.4388 2.91016 5.57617 3.29102 4.91211 4.05273C4.25456 4.81445 3.92578 6.04818 3.92578 7.75391C3.92578 9.5638 4.2513 10.8529 4.90234 11.6211C5.55339 12.3893 6.39974 12.7734 7.44141 12.7734C8.20964 12.7734 8.87044 12.5293 9.42383 12.041C9.97721 11.5527 10.3743 10.7845 10.6152 9.73633ZM14.4531 15L19.3457 7.5293L14.9121 0.683594H18.291L21.1621 5.2832L23.9746 0.683594H27.3242L22.8711 7.63672L27.7637 15H24.2773L21.1035 10.0488L17.9199 15H14.4531ZM38.4082 9.73633L41.2109 10.625C40.7812 12.1875 40.0651 13.3496 39.0625 14.1113C38.0664 14.8665 36.8001 15.2441 35.2637 15.2441C33.3626 15.2441 31.8001 14.5964 30.5762 13.3008C29.3522 11.9987 28.7402 10.2214 28.7402 7.96875C28.7402 5.58594 29.3555 3.73698 30.5859 2.42188C31.8164 1.10026 33.4342 0.439453 35.4395 0.439453C37.1908 0.439453 38.6133 0.957031 39.707 1.99219C40.3581 2.60417 40.8464 3.48307 41.1719 4.62891L38.3105 5.3125C38.1413 4.57031 37.7865 3.98438 37.2461 3.55469C36.7122 3.125 36.0612 2.91016 35.293 2.91016C34.2318 2.91016 33.3691 3.29102 32.7051 4.05273C32.0475 4.81445 31.7188 6.04818 31.7188 7.75391C31.7188 9.5638 32.0443 10.8529 32.6953 11.6211C33.3464 12.3893 34.1927 12.7734 35.2344 12.7734C36.0026 12.7734 36.6634 12.5293 37.2168 12.041C37.7702 11.5527 38.1673 10.7845 38.4082 9.73633ZM49.6875 11.6992L52.4219 12.1582C52.0703 13.1608 51.5137 13.9258 50.752 14.4531C49.9967 14.974 49.0495 15.2344 47.9102 15.2344C46.1068 15.2344 44.7721 14.6452 43.9062 13.4668C43.2227 12.5228 42.8809 11.3314 42.8809 9.89258C42.8809 8.17383 43.3301 6.82943 44.2285 5.85938C45.127 4.88281 46.263 4.39453 47.6367 4.39453C49.1797 4.39453 50.3971 4.9056 51.2891 5.92773C52.181 6.94336 52.6074 8.5026 52.5684 10.6055H45.6934C45.7129 11.4193 45.9342 12.054 46.3574 12.5098C46.7806 12.959 47.3079 13.1836 47.9395 13.1836C48.3691 13.1836 48.7305 13.0664 49.0234 12.832C49.3164 12.5977 49.5378 12.2201 49.6875 11.6992ZM49.8438 8.92578C49.8242 8.13151 49.6191 7.5293 49.2285 7.11914C48.8379 6.70247 48.3626 6.49414 47.8027 6.49414C47.2038 6.49414 46.709 6.71224 46.3184 7.14844C45.9277 7.58464 45.7357 8.17708 45.7422 8.92578H49.8438ZM54.8145 15V0.683594H57.5586V15H54.8145ZM66.3867 11.6992L69.1211 12.1582C68.7695 13.1608 68.2129 13.9258 67.4512 14.4531C66.696 14.974 65.7487 15.2344 64.6094 15.2344C62.806 15.2344 61.4714 14.6452 60.6055 13.4668C59.9219 12.5228 59.5801 11.3314 59.5801 9.89258C59.5801 8.17383 60.0293 6.82943 60.9277 5.85938C61.8262 4.88281 62.9622 4.39453 64.3359 4.39453C65.8789 4.39453 67.0964 4.9056 67.9883 5.92773C68.8802 6.94336 69.3066 8.5026 69.2676 10.6055H62.3926C62.4121 11.4193 62.6335 12.054 63.0566 12.5098C63.4798 12.959 64.0072 13.1836 64.6387 13.1836C65.0684 13.1836 65.4297 13.0664 65.7227 12.832C66.0156 12.5977 66.237 12.2201 66.3867 11.6992ZM66.543 8.92578C66.5234 8.13151 66.3184 7.5293 65.9277 7.11914C65.5371 6.70247 65.0618 6.49414 64.502 6.49414C63.903 6.49414 63.4082 6.71224 63.0176 7.14844C62.627 7.58464 62.4349 8.17708 62.4414 8.92578H66.543ZM74.1406 15H71.3965V4.62891H73.9453V6.10352C74.3815 5.4069 74.7721 4.94792 75.1172 4.72656C75.4688 4.50521 75.8659 4.39453 76.3086 4.39453C76.9336 4.39453 77.5358 4.56706 78.1152 4.91211L77.2656 7.30469C76.8034 7.00521 76.3737 6.85547 75.9766 6.85547C75.5924 6.85547 75.2669 6.96289 75 7.17773C74.7331 7.38607 74.5215 7.76693 74.3652 8.32031C74.2155 8.8737 74.1406 10.0326 74.1406 11.7969V15ZM81.3574 7.79297L78.8672 7.34375C79.1471 6.34115 79.6289 5.59896 80.3125 5.11719C80.9961 4.63542 82.0117 4.39453 83.3594 4.39453C84.5833 4.39453 85.4948 4.54102 86.0938 4.83398C86.6927 5.12044 87.1126 5.48828 87.3535 5.9375C87.6009 6.38021 87.7246 7.19727 87.7246 8.38867L87.6953 11.5918C87.6953 12.5033 87.7376 13.1771 87.8223 13.6133C87.9134 14.043 88.0794 14.5052 88.3203 15H85.6055C85.5339 14.8177 85.446 14.5475 85.3418 14.1895C85.2962 14.0267 85.2637 13.9193 85.2441 13.8672C84.7754 14.3229 84.2741 14.6647 83.7402 14.8926C83.2064 15.1204 82.6367 15.2344 82.0312 15.2344C80.9635 15.2344 80.1204 14.9447 79.502 14.3652C78.89 13.7858 78.584 13.0534 78.584 12.168C78.584 11.582 78.724 11.0612 79.0039 10.6055C79.2839 10.1432 79.6745 9.79167 80.1758 9.55078C80.6836 9.30339 81.4128 9.08854 82.3633 8.90625C83.6458 8.66536 84.5345 8.44076 85.0293 8.23242V7.95898C85.0293 7.43164 84.8991 7.05729 84.6387 6.83594C84.3783 6.60807 83.8867 6.49414 83.1641 6.49414C82.6758 6.49414 82.2949 6.5918 82.0215 6.78711C81.748 6.97591 81.5267 7.3112 81.3574 7.79297ZM85.0293 10.0195C84.6777 10.1367 84.1211 10.2767 83.3594 10.4395C82.5977 10.6022 82.0996 10.7617 81.8652 10.918C81.5072 11.1719 81.3281 11.4941 81.3281 11.8848C81.3281 12.2689 81.4714 12.6009 81.7578 12.8809C82.0443 13.1608 82.4089 13.3008 82.8516 13.3008C83.3464 13.3008 83.8184 13.138 84.2676 12.8125C84.5996 12.5651 84.8177 12.2624 84.9219 11.9043C84.9935 11.6699 85.0293 11.224 85.0293 10.5664V10.0195ZM95.1953 4.62891V6.81641H93.3203V10.9961C93.3203 11.8424 93.3366 12.3372 93.3691 12.4805C93.4082 12.6172 93.4896 12.7311 93.6133 12.8223C93.7435 12.9134 93.8997 12.959 94.082 12.959C94.3359 12.959 94.7038 12.8711 95.1855 12.6953L95.4199 14.8242C94.7819 15.0977 94.0592 15.2344 93.252 15.2344C92.7572 15.2344 92.3112 15.153 91.9141 14.9902C91.5169 14.821 91.224 14.6061 91.0352 14.3457C90.8529 14.0788 90.7259 13.7207 90.6543 13.2715C90.5957 12.9525 90.5664 12.3079 90.5664 11.3379V6.81641H89.3066V4.62891H90.5664V2.56836L93.3203 0.966797V4.62891H95.1953ZM96.4648 9.66797C96.4648 8.75651 96.6895 7.87435 97.1387 7.02148C97.5879 6.16862 98.2227 5.51758 99.043 5.06836C99.8698 4.61914 100.791 4.39453 101.807 4.39453C103.376 4.39453 104.661 4.9056 105.664 5.92773C106.667 6.94336 107.168 8.22917 107.168 9.78516C107.168 11.3542 106.66 12.6562 105.645 13.6914C104.635 14.7201 103.363 15.2344 101.826 15.2344C100.876 15.2344 99.9674 15.0195 99.1016 14.5898C98.2422 14.1602 97.5879 13.5319 97.1387 12.7051C96.6895 11.8717 96.4648 10.8594 96.4648 9.66797ZM99.2773 9.81445C99.2773 10.8431 99.5215 11.6309 100.01 12.1777C100.498 12.7246 101.1 12.998 101.816 12.998C102.533 12.998 103.132 12.7246 103.613 12.1777C104.102 11.6309 104.346 10.8366 104.346 9.79492C104.346 8.7793 104.102 7.99805 103.613 7.45117C103.132 6.9043 102.533 6.63086 101.816 6.63086C101.1 6.63086 100.498 6.9043 100.01 7.45117C99.5215 7.99805 99.2773 8.78581 99.2773 9.81445ZM111.953 15H109.209V4.62891H111.758V6.10352C112.194 5.4069 112.585 4.94792 112.93 4.72656C113.281 4.50521 113.678 4.39453 114.121 4.39453C114.746 4.39453 115.348 4.56706 115.928 4.91211L115.078 7.30469C114.616 7.00521 114.186 6.85547 113.789 6.85547C113.405 6.85547 113.079 6.96289 112.812 7.17773C112.546 7.38607 112.334 7.76693 112.178 8.32031C112.028 8.8737 111.953 10.0326 111.953 11.7969V15Z" fill="white"/>
</svg>
    