<svg width="84" height="19" viewBox="0 0 84 19" fill="none" xmlns="http://www.w3.org/2000/svg">
<path d="M11.7908 17.7122H0V0H3.73475V14.2789H11.7908V17.7122ZM24.8981 16.117C22.3022 18.0783 19.4718 18.6206 16.4646 17.4631C13.4056 16.2868 11.7435 12.9692 12.2952 9.43031C12.8064 6.14746 15.5081 3.66536 18.8035 3.4505C21.9485 3.31886 24.7832 5.44175 25.7088 8.62201C25.9226 9.3828 25.7518 9.67634 25.087 9.96625C22.7197 10.9982 20.3779 12.0973 18.0284 13.1747C17.7246 13.3123 17.4309 13.4706 17.0194 13.6767C18.8225 14.9916 20.8315 14.8285 23.494 13.2164L25.8753 15.3953C25.5002 15.6722 25.1961 15.891 24.8981 16.117ZM18.0579 7.00479C16.4612 7.64212 15.6949 9.01148 15.97 10.895L21.9371 8.30274C21.5411 7.6359 20.9337 7.13932 20.2232 6.90159C19.5126 6.66385 18.7453 6.70043 18.0579 7.00479ZM40.3904 17.4226H36.7649V13.3263C36.7649 12.2556 36.7706 11.1843 36.7649 10.1136C36.7508 8.18744 35.7401 6.86892 34.2603 6.83563C32.3538 6.79114 30.8847 8.16595 30.8434 10.1185C30.8004 12.1521 30.8311 14.1872 30.8296 16.2218V17.4283H27.2127V4.07117H30.4774L30.6239 5.16031C31.8323 4.42656 33.1569 3.93068 34.5331 3.69683C37.5182 3.28466 40.1039 5.22719 40.3463 8.47584C40.563 11.4122 40.3904 14.3815 40.3904 17.4226ZM48.7984 17.7999C44.9852 17.8532 41.8528 14.6284 41.802 10.5969V10.5182C41.7883 6.49034 44.8602 3.20931 48.6703 3.18328C52.4804 3.15726 55.5922 6.39531 55.628 10.4235C55.6633 14.4517 52.6091 17.7509 48.7993 17.7999H48.7984ZM48.7325 6.82382C46.8126 6.82836 45.2565 8.47069 45.2491 10.5001C45.246 11.4641 45.6054 12.3901 46.2483 13.0745C46.5665 13.4131 46.9448 13.6822 47.3615 13.8663C47.7782 14.0505 48.2252 14.146 48.6769 14.1476H48.7342C50.6141 14.1306 52.1434 12.541 52.1913 10.5536C52.1816 8.52607 50.6496 6.87406 48.7325 6.82382ZM60.7457 17.7249L55.0197 4.0624H59.1243L62.4694 12.6883L65.7637 4.0624H69.6151L64.5472 17.7246H60.746L60.7457 17.7249ZM83.1026 10.4465C83.1439 14.4768 80.0909 17.7821 76.2784 17.8335C72.466 17.885 69.3342 14.6632 69.2783 10.6329V10.5043C69.2632 6.46824 72.3457 3.18358 76.1632 3.16755C79.9808 3.15151 83.0877 6.41044 83.1029 10.4462H83.1026V10.4465ZM76.165 6.82564C74.2493 6.88193 72.7208 8.53394 72.7102 10.56C72.7664 12.5464 74.2963 14.1312 76.1759 14.15C78.0752 14.1742 79.6329 12.5658 79.6559 10.5579V10.4958C79.6404 8.46767 78.0835 6.83079 76.165 6.82564Z" fill="white"/>
</svg>
