<svg width="96" height="22" viewBox="0 0 96 22" fill="none" xmlns="http://www.w3.org/2000/svg">
<path d="M13.6207 20.678H0V0H4.31435V16.6698H13.6207V20.678V20.678ZM28.7621 18.8158C25.7633 21.1055 22.4937 21.7386 19.0198 20.3872C15.486 19.014 13.5661 15.1408 14.2033 11.0094C14.7939 7.17682 17.9148 4.2791 21.7217 4.02826C25.3548 3.87458 28.6294 6.35294 29.6986 10.0657C29.9456 10.9539 29.7483 11.2966 28.9803 11.635C26.2456 12.8398 23.5404 14.1229 20.8263 15.3807C20.4754 15.5414 20.1361 15.7262 19.6607 15.9668C21.7436 17.5019 24.0644 17.3114 27.1401 15.4294L29.8909 17.9731C29.4576 18.2964 29.1064 18.5518 28.7621 18.8158V18.8158ZM20.8604 8.17771C19.0159 8.92175 18.1307 10.5204 18.4485 12.7193L25.3416 9.69299C24.8841 8.91449 24.1824 8.33476 23.3617 8.05722C22.5409 7.77968 21.6544 7.82238 20.8604 8.17771V8.17771ZM46.6587 20.3399H42.4705V15.5577C42.4705 14.3077 42.4771 13.0571 42.4705 11.8071C42.4543 9.55838 41.2867 8.01908 39.5773 7.98022C37.3749 7.92828 35.6777 9.5333 35.6301 11.8128C35.5804 14.1869 35.6158 16.5628 35.6142 18.938V20.3466H31.4359V4.75287H35.2073L35.3765 6.02438C36.7725 5.16776 38.3026 4.58886 39.8924 4.31585C43.3408 3.83466 46.3277 6.10246 46.6078 9.89507C46.858 13.3231 46.6587 16.7896 46.6587 20.3399ZM56.3716 20.7804C51.9665 20.8426 48.348 17.0779 48.2894 12.3713V12.2795C48.2735 7.57711 51.8222 3.74669 56.2236 3.7163C60.625 3.68592 64.2197 7.46617 64.2611 12.1689C64.3018 16.8716 60.7737 20.7232 56.3726 20.7804H56.3716V20.7804ZM56.2954 7.96644C54.0775 7.97174 52.28 9.88906 52.2714 12.2583C52.2678 13.3838 52.683 14.4647 53.4257 15.2637C53.7933 15.6591 54.2302 15.9732 54.7116 16.1882C55.193 16.4031 55.7094 16.5147 56.2312 16.5165H56.2974C58.469 16.4967 60.2357 14.6409 60.291 12.3208C60.2798 9.95372 58.5101 8.02508 56.2954 7.96644V7.96644ZM70.173 20.6928L63.5583 4.74262H68.3L72.1642 14.8129L75.9697 4.74262H80.4188L74.5645 20.6925H70.1733L70.173 20.6928ZM95.9995 12.1957C96.0472 16.9009 92.5204 20.7596 88.1163 20.8196C83.7122 20.8797 80.0944 17.1185 80.0298 12.4134V12.2632C80.0123 7.55132 83.5732 3.71666 87.9832 3.69793C92.3933 3.67921 95.9823 7.48384 95.9999 12.1954H95.9995V12.1957ZM87.9852 7.96856C85.7723 8.03427 84.0065 9.9629 83.9943 12.3282C84.0592 14.6472 85.8266 16.4974 87.9978 16.5193C90.1919 16.5476 91.9914 14.6698 92.0179 12.3257V12.2533C92 9.88553 90.2015 7.97456 87.9852 7.96856V7.96856Z" fill="#070A10"/>
</svg>
