<svg width="130" height="42" viewBox="0 0 130 42" fill="none" xmlns="http://www.w3.org/2000/svg">
<rect width="130" height="42" fill="#BD1209"/>
<path d="M29.1882 31.3668H15V11H19.4941V27.419H29.1882V31.3668ZM44.9605 29.5326C41.8368 31.7878 38.4309 32.4114 34.8123 31.0804C31.1313 29.7278 29.1313 25.9129 29.7951 21.8437C30.4103 18.0688 33.6613 15.2147 37.6268 14.9676C41.4112 14.8163 44.8223 17.2573 45.9361 20.9142C46.1933 21.7891 45.9878 22.1266 45.1878 22.46C42.3392 23.6466 39.5213 24.9104 36.694 26.1492C36.3285 26.3075 35.9751 26.4895 35.4799 26.7265C37.6495 28.2385 40.0671 28.0509 43.2709 26.1972L46.1364 28.7027C45.685 29.0211 45.3192 29.2727 44.9605 29.5326ZM36.7295 19.0546C34.8082 19.7875 33.8861 21.3621 34.2171 23.5279L41.3975 20.5471C40.921 19.7803 40.19 19.2093 39.3351 18.936C38.4801 18.6626 37.5567 18.7047 36.7295 19.0546ZM63.6029 31.0338H59.2401V26.3235C59.2401 25.0924 59.247 23.8606 59.2401 22.6294C59.2232 20.4145 58.007 18.8984 56.2263 18.8601C53.9322 18.809 52.1643 20.3898 52.1146 22.635C52.0629 24.9734 52.0998 27.3135 52.0981 29.653V31.0404H47.7457V15.6813H51.6743L51.8505 16.9337C53.3046 16.09 54.8986 15.5198 56.5546 15.2509C60.1467 14.777 63.258 17.0106 63.5498 20.7462C63.8104 24.1226 63.6029 27.5369 63.6029 31.0338ZM73.7204 31.4677C69.1318 31.5289 65.3625 27.8209 65.3015 23.1851V23.0947C65.2849 18.4631 68.9815 14.6903 73.5663 14.6604C78.1511 14.6305 81.8955 18.3538 81.9386 22.9857C81.981 27.6177 78.3059 31.4113 73.7214 31.4677H73.7204ZM73.6411 18.8465C71.3308 18.8518 69.4584 20.7402 69.4494 23.0738C69.4456 24.1823 69.8781 25.2471 70.6518 26.034C71.0347 26.4234 71.4898 26.7328 71.9913 26.9445C72.4927 27.1563 73.0306 27.2662 73.5742 27.268H73.6432C75.9052 27.2485 77.7456 25.4205 77.8031 23.1354C77.7914 20.8039 75.948 18.9043 73.6411 18.8465ZM88.0969 31.3814L81.2066 15.6713H86.1459L90.171 25.59L94.1351 15.6713H98.7696L92.6713 31.3811H88.0972L88.0969 31.3814ZM115 23.0122C115.049 27.6466 111.375 31.4472 106.788 31.5063C102.2 31.5655 98.4317 27.8609 98.3644 23.2265V23.0787C98.3461 18.4377 102.055 14.6607 106.649 14.6423C111.243 14.6238 114.982 18.3712 115 23.0118H115V23.0122ZM106.651 18.8486C104.346 18.9134 102.507 20.813 102.494 23.1427C102.562 25.4268 104.403 27.2492 106.664 27.2707C108.95 27.2986 110.824 25.4491 110.852 23.1402V23.0689C110.833 20.7368 108.96 18.8546 106.651 18.8486Z" fill="white"/>
</svg>