<svg width="320" height="22" viewBox="0 0 320 22" fill="none" xmlns="http://www.w3.org/2000/svg">
<g clip-path="url(#clip0_9445_10957)">
<path d="M245.39 16.3458C245.914 16.451 246.446 16.5044 246.98 16.5048L247.457 16.458C248.099 16.4254 248.732 16.2862 249.329 16.0463C249.979 15.794 250.537 15.3502 250.929 14.7738C251.298 14.1792 251.487 13.4901 251.472 12.7902C251.501 12.0917 251.311 11.4016 250.929 10.8159C250.723 10.5441 250.481 10.3017 250.208 10.0955C250.021 9.96475 249.821 9.8549 249.61 9.76798C249.032 9.53706 248.434 9.36461 247.822 9.25339H247.654L247.111 9.15046C246.893 9.10591 246.678 9.04969 246.466 8.98204C246.288 8.93008 246.124 8.83715 245.988 8.7107L245.942 8.65456C245.851 8.51984 245.808 8.35826 245.82 8.19608C245.817 8.09129 245.843 7.9877 245.895 7.89666C245.949 7.80685 246.023 7.73016 246.11 7.6721C246.501 7.47652 246.936 7.38623 247.373 7.41011C247.732 7.40953 248.088 7.46317 248.431 7.56918L248.618 7.63467C248.832 7.70511 249.042 7.7895 249.245 7.88731L249.394 7.99959L251.49 6.12824L251.116 5.89432C250.732 5.63574 250.324 5.41334 249.9 5.23C249.495 5.05509 249.075 4.91729 248.646 4.8183C248.228 4.72494 247.801 4.67787 247.373 4.67795C246.895 4.67401 246.418 4.72423 245.951 4.82766C245.659 4.88969 245.374 4.98058 245.1 5.099C244.47 5.36063 243.935 5.80773 243.565 6.38087C243.378 6.68529 243.239 7.01666 243.153 7.36333C243.074 7.70052 243.036 8.04618 243.041 8.39257C243.032 8.75151 243.069 9.11014 243.153 9.45921C243.233 9.82534 243.397 10.1681 243.631 10.4604C243.988 10.9582 244.487 11.3364 245.062 11.5458C245.277 11.6206 245.502 11.6861 245.717 11.7422C246.082 11.8358 246.484 11.92 246.952 11.9949H247.046C247.093 12.0029 247.139 12.0029 247.186 11.9949C247.501 12.0453 247.814 12.1141 248.122 12.2007C248.295 12.2536 248.454 12.343 248.59 12.4627C248.638 12.5215 248.676 12.5879 248.702 12.6592C248.713 12.74 248.713 12.8218 248.702 12.9025C248.703 13.0272 248.671 13.15 248.608 13.258C248.548 13.3667 248.457 13.4547 248.346 13.5107C248.06 13.6724 247.739 13.7653 247.411 13.782H246.98C246.585 13.7835 246.192 13.7332 245.811 13.6323C245.683 13.6037 245.558 13.5662 245.436 13.52C245.137 13.4179 244.849 13.2863 244.576 13.127L244.398 13.0148L242.339 14.8113L242.657 15.0826C242.853 15.2428 243.06 15.3897 243.275 15.5224C243.478 15.6458 243.687 15.7582 243.902 15.8592C243.992 15.9062 244.085 15.9439 244.183 15.9715C244.571 16.137 244.976 16.2625 245.39 16.3458Z" fill="white"/>
<path d="M11.0323 16.5728H0V0H3.4945V13.3604H11.0323V16.5728ZM23.2965 15.0802C20.8676 16.9154 18.2192 17.4228 15.4055 16.3397C12.5433 15.2391 10.9881 12.1349 11.5043 8.82368C11.9826 5.75201 14.5105 3.42958 17.5939 3.22854C20.5366 3.10537 23.189 5.0917 24.055 8.06738C24.2551 8.77923 24.0952 9.05389 23.4732 9.32515C21.2582 10.2907 19.067 11.3191 16.8687 12.3272C16.5844 12.456 16.3096 12.6041 15.9246 12.7969C17.6117 14.0272 19.4915 13.8746 21.9827 12.3662L24.2108 14.405C23.8598 14.664 23.5753 14.8688 23.2965 15.0802ZM16.8963 6.55419C15.4023 7.15052 14.6853 8.43179 14.9427 10.1942L20.5259 7.76865C20.1554 7.1447 19.5871 6.68007 18.9223 6.45763C18.2574 6.23518 17.5395 6.26941 16.8963 6.55419ZM37.7922 16.3018H34.3999V12.4691C34.3999 11.4672 34.4052 10.4648 34.3999 9.46302C34.3867 7.66076 33.441 6.42706 32.0564 6.39591C30.2726 6.35428 28.898 7.64065 28.8593 9.4676C28.8191 11.3704 28.8478 13.2746 28.8464 15.1783V16.3072H25.4622V3.80928H28.517L28.6539 4.82836C29.7846 4.14181 31.024 3.67783 32.3117 3.45902C35.1047 3.07337 37.5241 4.89094 37.7509 7.93061C37.9537 10.6781 37.7922 13.4564 37.7922 16.3018ZM45.6593 16.6549C42.0914 16.7047 39.1605 13.6874 39.113 9.91523V9.84159C39.1002 6.07283 41.9745 3.00286 45.5395 2.97851C49.1045 2.95416 52.0161 5.98392 52.0496 9.75298C52.0826 13.5221 49.2249 16.609 45.6602 16.6549H45.6593ZM45.5977 6.38487C43.8013 6.38911 42.3453 7.92579 42.3383 9.82466C42.3354 10.7266 42.6717 11.5931 43.2733 12.2335C43.571 12.5503 43.925 12.8021 44.3148 12.9743C44.7047 13.1467 45.123 13.236 45.5456 13.2375H45.5992C47.3582 13.2216 48.7891 11.7343 48.834 9.87471C48.8249 7.97761 47.3914 6.43187 45.5977 6.38487ZM56.8381 16.5847L51.4804 3.80108H55.321L58.4509 11.8721L61.5333 3.80108H65.1369L60.395 16.5844H56.8384L56.8381 16.5847ZM77.7568 9.7745C77.7955 13.5455 74.9388 16.6382 71.3716 16.6863C67.8044 16.7345 64.8741 13.72 64.8218 9.94891V9.82858C64.8077 6.05215 67.6919 2.97879 71.2638 2.96379C74.8358 2.94878 77.7429 5.99807 77.7571 9.77422H77.7568V9.7745ZM71.2655 6.38656C69.473 6.43923 68.0428 7.98497 68.0329 9.8807C68.0855 11.7393 69.517 13.2222 71.2757 13.2398C73.0528 13.2624 74.5103 11.7575 74.5318 9.87874V9.82063C74.5173 7.92297 73.0606 6.39138 71.2655 6.38656Z" fill="white"/>
<path d="M103.223 1.52734V16.1889H100.11V6.0995L95.5602 10.1243L91.0101 6.0995V16.1889H87.8975V1.52734H90.959L95.5602 5.59594L100.162 1.52734H103.223Z" fill="white"/>
<path d="M110.031 4.85547C107.182 4.85547 104.872 7.36596 104.872 10.464C104.872 13.5619 107.182 16.0687 110.031 16.0687C112.881 16.0687 115.192 13.5582 115.192 10.464C115.192 7.36961 112.881 4.85547 110.031 4.85547ZM110.521 13.135C109.993 13.1271 109.48 12.9634 109.045 12.6646C108.611 12.3657 108.274 11.9451 108.078 11.4555C107.882 10.9659 107.834 10.4292 107.943 9.91294C108.051 9.39673 108.309 8.92389 108.685 8.55398C109.061 8.18407 109.538 7.93358 110.056 7.834C110.574 7.73441 111.109 7.7902 111.596 7.99432C112.082 8.19845 112.498 8.5418 112.789 8.98122C113.081 9.42068 113.236 9.93652 113.235 10.464C113.232 10.8175 113.16 11.1672 113.022 11.4928C112.884 11.8184 112.683 12.1137 112.431 12.3618C112.18 12.6097 111.881 12.8058 111.553 12.9384C111.225 13.071 110.874 13.1378 110.521 13.135Z" fill="white"/>
<path d="M124.055 4.85547C121.205 4.85547 118.914 7.36596 118.914 10.464C118.914 13.5619 121.223 16.0687 124.073 16.0687C126.923 16.0687 129.233 13.5582 129.233 10.464C129.233 7.36961 126.904 4.85547 124.055 4.85547ZM124.555 13.135C124.027 13.1271 123.514 12.9634 123.079 12.6646C122.645 12.3657 122.308 11.9451 122.112 11.4555C121.916 10.9659 121.868 10.4292 121.977 9.91294C122.085 9.39673 122.343 8.92389 122.719 8.55398C123.095 8.18407 123.572 7.93358 124.09 7.834C124.608 7.73441 125.143 7.7902 125.63 7.99432C126.116 8.19845 126.532 8.5418 126.823 8.98122C127.115 9.42068 127.27 9.93652 127.269 10.464C127.266 10.8175 127.194 11.1672 127.056 11.4928C126.918 11.8184 126.717 12.1137 126.465 12.3618C126.214 12.6097 125.915 12.8058 125.587 12.9384C125.259 13.071 124.908 13.1378 124.555 13.135Z" fill="white"/>
<path d="M201.753 1.1582V15.827H198.654V1.1582" fill="white"/>
<path d="M207.022 12.3894L207.862 12.1522L209.16 11.7873L211.788 11.0575L214.605 10.2657L214.696 10.2401C214.667 9.91133 214.611 9.58543 214.528 9.26586C213.722 6.06206 210.628 4.08797 207.639 4.83601C204.65 5.58406 202.873 8.80609 203.679 11.9989C203.786 12.4164 203.934 12.8222 204.121 13.2104C204.491 13.9926 205.028 14.6848 205.692 15.2387C206.357 15.7927 207.135 16.195 207.971 16.4178C208.447 16.5395 208.939 16.5947 209.431 16.582C209.821 16.5714 210.208 16.5175 210.587 16.4215C210.678 16.3996 210.773 16.374 210.86 16.3448L211.164 16.239C212.433 15.7103 213.566 14.902 214.481 13.8745L212.543 12.2288C211.244 13.2287 210.624 13.4586 209.963 13.6228C209.611 13.6974 209.247 13.7016 208.894 13.6353C208.54 13.5689 208.202 13.4332 207.901 13.236C207.542 13.0228 207.225 12.7429 206.971 12.4113L207.022 12.3894ZM206.183 10.2511C206.216 9.63465 206.438 9.04343 206.819 8.55813C207.2 8.07284 207.722 7.71722 208.314 7.53989C208.502 7.49291 208.693 7.46721 208.886 7.46327C209.597 7.45556 210.286 7.70726 210.824 8.17117C211.04 8.34751 211.233 8.55111 211.398 8.7769L206.183 10.2511Z" fill="white"/>
<path d="M117.346 5.41406H114.248V16.069H117.346V5.41406Z" fill="white"/>
<path d="M151.448 4.85547C148.598 4.85547 146.289 7.36596 146.289 10.464C146.289 13.5619 148.598 16.0687 151.448 16.0687C154.298 16.0687 156.607 13.5582 156.607 10.464C156.607 7.36961 154.309 4.85547 151.448 4.85547ZM151.948 13.135C151.421 13.1249 150.909 12.9594 150.476 12.6593C150.042 12.3593 149.708 11.9378 149.513 11.4481C149.318 10.9584 149.273 10.422 149.382 9.90648C149.491 9.39102 149.751 8.91922 150.127 8.55039C150.503 8.18158 150.98 7.93215 151.497 7.83343C152.016 7.73471 152.551 7.7911 153.037 7.99551C153.522 8.19993 153.937 8.54325 154.228 8.98241C154.519 9.42152 154.674 9.93699 154.673 10.464C154.67 10.8185 154.598 11.169 154.459 11.4953C154.32 11.8217 154.119 12.1175 153.866 12.3656C153.612 12.6139 153.313 12.8095 152.983 12.9415C152.654 13.0735 152.302 13.1393 151.948 13.135Z" fill="white"/>
<path d="M158.76 5.41406H155.662V16.069H158.76V5.41406Z" fill="white"/>
<path d="M188.9 4.85547C186.051 4.85547 183.741 7.36596 183.741 10.464C183.741 13.5619 186.055 16.0687 188.9 16.0687C191.746 16.0687 194.06 13.5582 194.06 10.464C194.06 7.36961 191.75 4.85547 188.9 4.85547ZM189.401 13.135C188.873 13.1271 188.359 12.9634 187.925 12.6646C187.49 12.3657 187.154 11.9451 186.958 11.4555C186.761 10.9659 186.714 10.4292 186.823 9.91294C186.93 9.39673 187.189 8.92389 187.565 8.55398C187.941 8.18407 188.417 7.93358 188.936 7.834C189.453 7.73441 189.989 7.7902 190.476 7.99432C190.962 8.19845 191.377 8.5418 191.669 8.98122C191.961 9.42068 192.116 9.93652 192.115 10.464C192.112 10.8175 192.04 11.1672 191.902 11.4928C191.764 11.8184 191.563 12.1137 191.311 12.3618C191.059 12.6097 190.76 12.8058 190.433 12.9384C190.104 13.071 189.754 13.1378 189.401 13.135Z" fill="white"/>
<path d="M196.213 5.41406H193.115V16.069H196.213V5.41406Z" fill="white"/>
<path d="M144.507 15.9695H141.271V9.82462C141.271 8.94522 140.034 7.96 138.672 8.00014C137.407 8.04392 136.1 9.45971 136.1 10.3464L134.239 9.82462C136.352 7.41995 137.432 5.49219 139.877 5.49219C142.241 5.49219 144.515 6.63908 144.515 9.53634L144.507 15.9695Z" fill="white"/>
<path d="M136.476 5.41406H133.378V16.069H136.476V5.41406Z" fill="white"/>
<path d="M124.096 21.1304C122.664 21.1301 121.27 20.6752 120.114 19.8314L121.914 17.3501C122.547 17.8201 123.313 18.0757 124.103 18.0798C125.563 18.0798 128.039 17.5253 128.039 13.8106V5.41797H131.105V13.8106C131.098 18.2514 128.35 21.1304 124.096 21.1304Z" fill="white"/>
<path d="M170.883 9.32262C170.637 8.98247 170.338 8.68322 170 8.43592C169.771 8.27481 169.527 8.139 169.27 8.03088C168.513 7.73246 167.728 7.50881 166.927 7.36312L166.825 7.34124C166.786 7.32961 166.745 7.32106 166.704 7.31569L166.61 7.29745H166.54L165.957 7.17703C165.592 7.09675 165.292 7.01647 165.058 6.93984C164.744 6.84476 164.459 6.67297 164.227 6.43994L164.161 6.35236C163.991 6.11517 163.907 5.82659 163.924 5.535C163.915 5.31993 163.966 5.10672 164.073 4.91963C164.18 4.73255 164.337 4.57911 164.526 4.4768C165.107 4.18219 165.755 4.04625 166.405 4.08271C166.901 4.08624 167.393 4.16372 167.864 4.3126L168.12 4.39652C168.425 4.4977 168.722 4.61962 169.011 4.76141L171.273 2.76178L171.178 2.7034C170.702 2.37758 170.196 2.09778 169.667 1.86779C169.143 1.63852 168.598 1.46011 168.04 1.33503C167.504 1.21601 166.958 1.15483 166.408 1.15259C165.772 1.14784 165.137 1.21269 164.515 1.34598C164.147 1.42507 163.788 1.53995 163.442 1.68899C162.662 2.0128 161.999 2.56643 161.541 3.27628C161.306 3.64907 161.136 4.05858 161.038 4.48774C160.936 4.91189 160.885 5.34687 160.888 5.78313C160.883 6.23754 160.934 6.69083 161.038 7.13325C161.139 7.57297 161.333 7.98598 161.607 8.3447C162.041 8.92115 162.633 9.35958 163.31 9.60726C163.591 9.70709 163.876 9.79233 164.165 9.8627C164.639 9.98677 165.175 10.0962 165.767 10.1911L165.96 10.213C166.004 10.226 166.049 10.2345 166.095 10.2386C166.549 10.3053 166.997 10.4016 167.438 10.5267C167.74 10.6108 168.017 10.7702 168.241 10.9902C168.342 11.1026 168.419 11.2341 168.469 11.377C168.518 11.5199 168.539 11.6713 168.529 11.8222C168.534 12.0591 168.474 12.293 168.357 12.4984C168.238 12.7037 168.066 12.8724 167.858 12.9862C167.428 13.2252 166.95 13.3649 166.46 13.3949C166.266 13.4131 166.062 13.4204 165.847 13.4204C165.278 13.4211 164.712 13.3512 164.161 13.2124C163.982 13.165 163.796 13.1139 163.625 13.0518C163.192 12.9072 162.775 12.715 162.384 12.4789L160.147 14.4276L160.235 14.5005C160.484 14.7059 160.748 14.8936 161.023 15.0624C161.285 15.2249 161.557 15.3712 161.837 15.5003C161.95 15.555 162.067 15.6025 162.202 15.6499C162.703 15.8565 163.224 16.0154 163.756 16.1243C164.438 16.2679 165.132 16.3401 165.828 16.3396C166.037 16.3396 166.241 16.3396 166.441 16.3396C167.287 16.3036 168.12 16.1235 168.905 15.8068C169.702 15.4939 170.387 14.9469 170.868 14.2378C171.336 13.4938 171.572 12.6276 171.546 11.7492C171.586 10.8905 171.354 10.0413 170.883 9.32262Z" fill="white"/>
<path d="M182.738 14.1523L180.796 12.4373L180.516 12.1892C180.264 12.4803 179.952 12.7135 179.602 12.8729C179.252 13.0322 178.872 13.1139 178.487 13.1124C177.797 13.1222 177.132 12.8594 176.635 12.381C176.139 11.9027 175.85 11.2476 175.834 10.5581C175.834 9.89723 176.097 9.26357 176.564 8.79566C177.023 8.329 177.636 8.04503 178.288 7.9967C178.94 7.94836 179.588 8.13895 180.11 8.53293L182.446 6.46762C181.89 5.94645 181.236 5.54021 180.523 5.2722C179.809 5.00417 179.049 4.87964 178.288 4.90574C177.526 4.93184 176.778 5.10807 176.083 5.42431C175.39 5.74055 174.766 6.19058 174.247 6.74858C173.406 7.6565 172.891 8.81811 172.783 10.0507C172.675 11.2833 172.979 12.5169 173.649 13.5576C174.139 14.3296 174.811 14.9707 175.604 15.4258C176.48 15.9338 177.475 16.202 178.487 16.2031H178.702C179.061 16.1889 179.417 16.1425 179.768 16.0644C180.909 15.8073 181.944 15.2091 182.738 14.3494C182.771 14.3165 182.8 14.28 182.833 14.2435L182.738 14.1523Z" fill="white"/>
<path d="M289.798 11.4538L290.638 11.2166L291.937 10.8517L294.565 10.122L297.381 9.33013L297.473 9.30458C297.444 8.97575 297.388 8.64988 297.304 8.33032C296.498 5.12652 293.404 3.15242 290.415 3.90047C287.426 4.64851 285.65 7.87054 286.456 11.0634C286.563 11.4809 286.711 11.8867 286.898 12.2749C287.268 13.0571 287.804 13.7492 288.469 14.3031C289.134 14.8571 289.912 15.2595 290.747 15.4823C291.224 15.604 291.716 15.6592 292.207 15.6465C292.597 15.6358 292.985 15.582 293.364 15.4859C293.455 15.464 293.55 15.4385 293.637 15.4093L293.941 15.3035C295.209 14.7747 296.343 13.9665 297.258 12.9389L295.32 11.2933C294.02 12.2931 293.4 12.523 292.74 12.6872C292.387 12.7619 292.024 12.7661 291.671 12.6998C291.316 12.6333 290.979 12.4977 290.678 12.3004C290.319 12.0873 290.002 11.8073 289.748 11.4757L289.798 11.4538ZM288.959 9.31553C288.992 8.69914 289.215 8.10788 289.595 7.62258C289.977 7.1373 290.499 6.78167 291.091 6.60435C291.278 6.55737 291.47 6.53166 291.663 6.52772C292.374 6.52001 293.063 6.77171 293.601 7.23563C293.817 7.41196 294.01 7.61556 294.174 7.84135L288.959 9.31553Z" fill="white"/>
<path d="M265.22 4.67773C262.37 4.67773 260.06 7.18823 260.06 10.2862C260.06 13.3842 262.37 15.891 265.22 15.891C268.07 15.891 270.38 13.3805 270.38 10.2862C270.38 7.19188 268.07 4.67773 265.22 4.67773ZM265.709 12.9572C265.182 12.9494 264.668 12.7857 264.234 12.4869C263.799 12.188 263.463 11.7673 263.267 11.2778C263.07 10.7881 263.023 10.2515 263.131 9.73523C263.239 9.21896 263.498 8.74615 263.873 8.37624C264.249 8.00633 264.726 7.75583 265.245 7.65626C265.762 7.55668 266.298 7.61246 266.785 7.81659C267.27 8.0207 267.686 8.36407 267.978 8.80349C268.27 9.2429 268.425 9.75872 268.424 10.2862C268.421 10.6398 268.348 10.9895 268.211 11.3151C268.072 11.6407 267.872 11.9359 267.619 12.184C267.368 12.432 267.069 12.628 266.742 12.7606C266.413 12.8933 266.062 12.9601 265.709 12.9572Z" fill="white"/>
<path d="M272.538 5.23828H269.44V15.8932H272.538V5.23828Z" fill="white"/>
<path d="M240.667 16.1706H237.431V10.0258C237.431 9.14639 236.194 8.16118 234.834 8.20132C233.567 8.2451 232.26 9.66087 232.26 10.5476L230.399 10.0258C232.512 7.62113 233.592 5.69336 236.037 5.69336C238.401 5.69336 240.675 6.84025 240.675 9.7375L240.667 16.1706Z" fill="white"/>
<path d="M232.642 5.61328H229.544V16.2683H232.642V5.61328Z" fill="white"/>
<path d="M226.838 2.80664V16.3296H223.626V2.80664" fill="white"/>
<path d="M278.371 0.935547V15.6044H275.273V0.935547" fill="white"/>
<path d="M284.288 0.935547V15.6044H281.19V0.935547" fill="white"/>
<path fill-rule="evenodd" clip-rule="evenodd" d="M258.81 7.33092V4.86341H256.84V1.90295L253.777 1.87109V4.86341H252.454V7.33092H253.777V11.9973C253.777 13.0143 253.808 13.6989 253.871 14.0433C253.947 14.5224 254.084 14.9115 254.284 15.2054L254.286 15.2073C254.496 15.4968 254.818 15.7307 255.245 15.9126L255.246 15.9131C255.675 16.0889 256.155 16.1759 256.683 16.1759C257.541 16.1759 258.312 16.0306 258.995 15.7381L259.052 15.7135L258.788 13.3073L258.687 13.3441C258.182 13.5282 257.807 13.6161 257.556 13.6161C257.379 13.6161 257.234 13.5723 257.113 13.4883C256.998 13.4033 256.925 13.2998 256.889 13.1769C256.874 13.1097 256.861 12.9514 256.853 12.6922C256.844 12.4336 256.84 12.0824 256.84 11.6381V7.33092H258.81ZM252.538 4.94792H253.862V1.95649L256.755 1.98659V1.98715L253.865 1.95707V4.9485H252.541V7.2464H252.538V4.94792ZM253.862 7.24698V11.9973C253.862 13.0165 253.892 13.6938 253.954 14.0289C254.03 14.501 254.163 14.8772 254.354 15.1576C254.553 15.4313 254.861 15.657 255.278 15.8349C255.473 15.9146 255.677 15.9757 255.895 16.0183C255.679 15.9757 255.474 15.9148 255.281 15.8354C254.863 15.6577 254.556 15.4319 254.357 15.1583C254.165 14.8778 254.033 14.5015 253.957 14.0295C253.896 13.6943 253.865 13.0171 253.865 11.9979V7.24698H253.862ZM258.716 13.4252V13.4236C258.688 13.4337 258.66 13.4434 258.633 13.4529C258.167 13.6181 257.808 13.7006 257.556 13.7006C257.488 13.7006 257.424 13.6946 257.364 13.6827C257.425 13.695 257.49 13.7012 257.559 13.7012C257.825 13.7012 258.21 13.6092 258.716 13.4252ZM256.758 4.94792V4.9485H258.726V4.94792H256.758Z" fill="white"/>
<path d="M301.839 15.8843H298.939V4.9254H301.633V6.48358C302.093 5.74749 302.506 5.26248 302.871 5.02858C303.242 4.79468 303.662 4.67773 304.13 4.67773C304.79 4.67773 305.427 4.86004 306.039 5.22464L305.141 7.75284C304.652 7.43639 304.198 7.27816 303.779 7.27816C303.373 7.27816 303.029 7.39167 302.747 7.61869C302.465 7.83883 302.241 8.24128 302.076 8.82603C301.918 9.41074 301.839 10.6353 301.839 12.4997V15.8843Z" fill="white"/>
</g>
<defs>
<clipPath id="clip0_9445_10957">
<rect width="320" height="21.5205" fill="white"/>
</clipPath>
</defs>
</svg>
