<svg width="145" height="24" viewBox="0 0 145 24" fill="none" xmlns="http://www.w3.org/2000/svg">
<path d="M17.5615 0.738281V17.436H14.0166V5.94541L8.83445 10.5292L3.65226 5.94541V17.436H0.107422V0.738281H3.59408L8.83445 5.37192L14.0748 0.738281H17.5615Z" fill="white"/>
<path d="M25.3161 4.5293C22.0705 4.5293 19.4399 7.38844 19.4399 10.9167C19.4399 14.4449 22.0705 17.2999 25.3161 17.2999C28.5618 17.2999 31.1923 14.4407 31.1923 10.9167C31.1923 7.3926 28.5618 4.5293 25.3161 4.5293ZM25.873 13.9587C25.2724 13.9496 24.6878 13.7632 24.1929 13.4229C23.6979 13.0826 23.3146 12.6035 23.0912 12.0459C22.8677 11.4883 22.8141 10.8771 22.9371 10.2892C23.0601 9.70121 23.3542 9.16273 23.7824 8.74145C24.2105 8.32017 24.7537 8.03489 25.3436 7.92148C25.9335 7.80807 26.5437 7.87159 27.0976 8.10407C27.6515 8.33654 28.1243 8.72758 28.4565 9.22803C28.7888 9.72847 28.9656 10.316 28.9649 10.9167C28.9616 11.3194 28.8791 11.7176 28.7219 12.0884C28.5648 12.4593 28.3361 12.7956 28.049 13.078C27.7619 13.3605 27.4219 13.5837 27.0486 13.7348C26.6752 13.8859 26.2758 13.9619 25.873 13.9587V13.9587Z" fill="white"/>
<path d="M41.2866 4.5293C38.0409 4.5293 35.4312 7.38844 35.4312 10.9167C35.4312 14.4449 38.0617 17.2999 41.3074 17.2999C44.553 17.2999 47.1836 14.4407 47.1836 10.9167C47.1836 7.3926 44.5322 4.5293 41.2866 4.5293ZM41.8559 13.9587C41.2553 13.9496 40.6707 13.7632 40.1758 13.4229C39.6808 13.0826 39.2975 12.6035 39.0741 12.0459C38.8506 11.4883 38.797 10.8771 38.92 10.2892C39.043 9.70121 39.3371 9.16273 39.7653 8.74145C40.1934 8.32017 40.7366 8.03489 41.3265 7.92148C41.9164 7.80807 42.5266 7.87159 43.0805 8.10407C43.6344 8.33654 44.1072 8.72758 44.4394 9.22803C44.7717 9.72847 44.9485 10.316 44.9478 10.9167C44.9445 11.3194 44.8619 11.7176 44.7048 12.0884C44.5477 12.4593 44.319 12.7956 44.0319 13.078C43.7448 13.3605 43.4048 13.5837 43.0315 13.7348C42.6581 13.8859 42.2587 13.9619 41.8559 13.9587V13.9587Z" fill="white"/>
<path d="M129.774 0.318359V17.0244H126.246V0.318359" fill="white"/>
<path d="M135.776 13.1928L136.731 12.9227L138.211 12.5071L141.203 11.6759L144.411 10.7741L144.515 10.7451C144.482 10.3706 144.418 9.99942 144.324 9.63547V9.63547C143.405 5.98674 139.881 3.73849 136.478 4.59042C133.074 5.44234 131.05 9.11185 131.969 12.7481C132.09 13.2235 132.259 13.6857 132.472 14.1278C132.893 15.0187 133.504 15.807 134.261 16.4378C135.018 17.0687 135.904 17.5269 136.856 17.7807C137.399 17.9193 137.958 17.9822 138.518 17.9677C138.963 17.9556 139.405 17.8943 139.836 17.7849C139.94 17.7599 140.048 17.7308 140.147 17.6976L140.492 17.5771C141.938 16.9749 143.229 16.0544 144.27 14.8842L142.063 13.0099C140.584 14.1486 139.877 14.4104 139.125 14.5974C138.724 14.6825 138.31 14.6873 137.907 14.6117C137.504 14.5361 137.12 14.3816 136.777 14.1569C136.367 13.9142 136.008 13.5954 135.717 13.2177L135.776 13.1928ZM134.82 10.7575C134.857 10.0555 135.11 9.38214 135.544 8.82946C135.979 8.27677 136.573 7.87176 137.247 7.66981C137.46 7.6163 137.679 7.58703 137.899 7.58254C138.708 7.57376 139.493 7.86041 140.106 8.38875C140.352 8.58958 140.571 8.82146 140.758 9.0786L134.82 10.7575Z" fill="white"/>
<path d="M33.6439 5.16406H30.1157V17.2988H33.6439V5.16406Z" fill="white"/>
<path d="M72.4836 4.5293C69.238 4.5293 66.6074 7.38844 66.6074 10.9167C66.6074 14.4449 69.238 17.2999 72.4836 17.2999C75.7292 17.2999 78.3598 14.4407 78.3598 10.9167C78.3598 7.3926 75.7417 4.5293 72.4836 4.5293ZM73.0529 13.9587C72.4529 13.9472 71.8696 13.7587 71.3763 13.4169C70.883 13.0752 70.5017 12.5953 70.2801 12.0375C70.0586 11.4797 70.0067 10.869 70.1311 10.2818C70.2555 9.69472 70.5505 9.15741 70.9791 8.73737C71.4078 8.31733 71.951 8.03326 72.5405 7.92083C73.13 7.80841 73.7396 7.87262 74.2928 8.10543C74.8459 8.33823 75.318 8.72924 75.6497 9.22938C75.9814 9.72953 76.158 10.3165 76.1573 10.9167C76.154 11.3205 76.071 11.7197 75.9131 12.0913C75.7552 12.463 75.5254 12.7998 75.237 13.0825C74.9486 13.3651 74.6071 13.588 74.2323 13.7384C73.8576 13.8887 73.4567 13.9636 73.0529 13.9587V13.9587Z" fill="white"/>
<path d="M80.8119 5.16406H77.2837V17.2988H80.8119V5.16406Z" fill="white"/>
<path d="M115.138 4.5293C111.892 4.5293 109.262 7.38844 109.262 10.9167C109.262 14.4449 111.896 17.2999 115.138 17.2999C118.379 17.2999 121.014 14.4407 121.014 10.9167C121.014 7.3926 118.384 4.5293 115.138 4.5293ZM115.707 13.9587C115.107 13.9496 114.522 13.7632 114.027 13.4229C113.532 13.0826 113.149 12.6035 112.925 12.0459C112.702 11.4883 112.648 10.8771 112.771 10.2892C112.894 9.70121 113.188 9.16273 113.617 8.74145C114.045 8.32017 114.588 8.03489 115.178 7.92148C115.768 7.80807 116.378 7.87159 116.932 8.10407C117.486 8.33654 117.959 8.72758 118.291 9.22803C118.623 9.72847 118.8 10.316 118.799 10.9167C118.796 11.3194 118.713 11.7176 118.556 12.0884C118.399 12.4593 118.17 12.7956 117.883 13.078C117.596 13.3605 117.256 13.5837 116.883 13.7348C116.509 13.8859 116.11 13.9619 115.707 13.9587V13.9587Z" fill="white"/>
<path d="M123.466 5.16406H119.938V17.2988H123.466V5.16406Z" fill="white"/>
<path d="M64.5795 17.1865H60.8933V9.59396C60.8933 8.59243 59.4845 7.47038 57.9345 7.51609C56.4924 7.56596 55.0047 9.17838 55.0047 10.1882H52.8853C55.2914 7.4496 55.441 4.87305 58.2254 4.87305C60.9183 4.87305 64.5878 6.56027 64.5878 9.85992L64.5795 17.1865Z" fill="white"/>
<path d="M55.4325 5.16406H51.9043V17.2988H55.4325V5.16406Z" fill="white"/>
<path d="M41.3322 23.0625C39.7024 23.0622 38.1147 22.5441 36.7983 21.5831L38.8471 18.7572C39.5687 19.2925 40.4421 19.5836 41.3405 19.5884C43.0028 19.5884 45.8246 18.9567 45.8246 14.7262V5.16797H49.3154V14.7262C49.3071 19.7837 46.1778 23.0625 41.3322 23.0625Z" fill="white"/>
<path d="M94.6168 9.6155C94.3367 9.22811 93.9973 8.88731 93.6111 8.60566C93.3516 8.42217 93.0729 8.2675 92.78 8.14437C91.9175 7.8045 91.024 7.54979 90.112 7.38388L89.9956 7.35894C89.9507 7.3457 89.9049 7.33597 89.8585 7.32985L89.7504 7.30907H89.6715L89.0065 7.17193C88.591 7.08051 88.2502 6.98908 87.9842 6.90181C87.6261 6.79352 87.3005 6.59787 87.0367 6.33248L86.9619 6.23274C86.7678 5.9626 86.6724 5.63395 86.6918 5.30185C86.6818 5.05692 86.7408 4.8141 86.862 4.60103C86.9832 4.38797 87.1618 4.21322 87.3775 4.09669C88.0389 3.76118 88.7772 3.60635 89.5177 3.64787C90.0817 3.65189 90.642 3.74013 91.18 3.90969L91.4709 4.00527C91.818 4.1205 92.1568 4.25935 92.4849 4.42084L95.0615 2.1435L94.9534 2.07701C94.4114 1.70594 93.8353 1.38729 93.2329 1.12535C92.636 0.864236 92.0153 0.661058 91.3795 0.51861C90.7695 0.383044 90.1467 0.313383 89.5219 0.310823C88.797 0.305419 88.0738 0.379276 87.365 0.531077C86.946 0.621153 86.5368 0.751989 86.1432 0.921716C85.2547 1.29049 84.4995 1.92103 83.9781 2.72946C83.7111 3.15401 83.5172 3.6204 83.4046 4.10916C83.2884 4.59222 83.2312 5.0876 83.2342 5.58444C83.2291 6.10196 83.2863 6.61822 83.4046 7.12206C83.5201 7.62286 83.7411 8.09323 84.0529 8.50177C84.5475 9.15827 85.2215 9.65765 85.9936 9.93965C86.3125 10.0533 86.6371 10.1504 86.9661 10.2306C87.5063 10.3718 88.1172 10.4965 88.7904 10.6046L89.0107 10.6295C89.0608 10.6443 89.1124 10.6541 89.1645 10.6586C89.6808 10.7346 90.1917 10.8443 90.6938 10.9869C91.0383 11.0826 91.3529 11.2642 91.608 11.5147C91.7233 11.6426 91.8118 11.7924 91.8682 11.9552C91.9245 12.1179 91.9477 12.2903 91.9363 12.4622C91.9428 12.732 91.8748 12.9985 91.74 13.2323C91.6051 13.4661 91.4085 13.6583 91.1717 13.7879C90.6826 14.0601 90.1387 14.2192 89.58 14.2533C89.3598 14.2741 89.1271 14.2824 88.8819 14.2824C88.2346 14.2831 87.5897 14.2035 86.9619 14.0455C86.7583 13.9915 86.5464 13.9333 86.351 13.8627C85.8575 13.6979 85.3836 13.4791 84.9381 13.2102L82.3906 15.4294L82.4904 15.5125C82.7744 15.7464 83.0743 15.9602 83.388 16.1525C83.6864 16.3375 83.9959 16.504 84.3147 16.6512C84.4436 16.7135 84.5765 16.7675 84.7303 16.8215C85.3021 17.0569 85.8949 17.2377 86.5006 17.3618C87.2768 17.5254 88.0679 17.6076 88.8611 17.607C89.098 17.607 89.3307 17.607 89.5593 17.607C90.522 17.566 91.4707 17.3608 92.3644 17.0002C93.2728 16.6437 94.0522 16.0208 94.6002 15.2133C95.1328 14.3659 95.4018 13.3795 95.3731 12.3791C95.4184 11.4012 95.1537 10.434 94.6168 9.6155V9.6155Z" fill="white"/>
<path d="M108.119 15.1186L105.908 13.1654L105.588 12.8828C105.302 13.2143 104.947 13.48 104.548 13.6614C104.149 13.8429 103.716 13.936 103.277 13.9342C102.492 13.9454 101.734 13.646 101.168 13.1013C100.603 12.5565 100.275 11.8104 100.256 11.0252C100.257 10.2726 100.556 9.55089 101.087 9.018C101.61 8.48653 102.308 8.16313 103.051 8.10808C103.794 8.05303 104.532 8.27008 105.127 8.71878L107.786 6.36664C107.153 5.7731 106.409 5.31044 105.596 5.00519C104.783 4.69995 103.919 4.55812 103.051 4.58785C102.184 4.61758 101.33 4.81828 100.541 5.17844C99.7508 5.53859 99.0398 6.05112 98.4485 6.68663C97.4911 7.72064 96.9046 9.04357 96.7812 10.4473C96.6579 11.8511 97.0046 13.2561 97.767 14.4412C98.3261 15.3205 99.0905 16.0507 99.9945 16.569C100.992 17.1475 102.124 17.4529 103.277 17.4541H103.523C103.931 17.4379 104.337 17.3851 104.736 17.2962C106.036 17.0034 107.216 16.3222 108.119 15.343C108.156 15.3056 108.19 15.2641 108.227 15.2225L108.119 15.1186Z" fill="white"/>
</svg>
    