<svg width="270" height="25" viewBox="0 0 270 25" fill="black" xmlns="http://www.w3.org/2000/svg">
<path d="M13.0531 19.6084H0V0H4.13459V15.8076H13.0531V19.6084V19.6084ZM27.5637 17.8425C24.6898 20.0138 21.5564 20.6142 18.2273 19.3327C14.8408 18.0305 13.0008 14.3576 13.6115 10.4399C14.1774 6.80561 17.1684 4.05777 20.8166 3.81991C24.2983 3.67417 27.4365 6.02434 28.4612 9.54508C28.6978 10.3873 28.5088 10.7123 27.7728 11.0332C25.152 12.1757 22.5596 13.3925 19.9585 14.5851C19.6222 14.7376 19.2971 14.9128 18.8415 15.1409C20.8376 16.5966 23.0617 16.416 26.0092 14.6314L28.6455 17.0435C28.2302 17.3501 27.8936 17.5923 27.5637 17.8425V17.8425ZM19.9912 7.75473C18.2235 8.46028 17.3752 9.97625 17.6798 12.0614L24.2857 9.19163C23.8473 8.4534 23.1748 7.90366 22.3882 7.64047C21.6017 7.37728 20.7521 7.41778 19.9912 7.75473V7.75473ZM44.7146 19.2878H40.7009V14.753C40.7009 13.5677 40.7073 12.3817 40.7009 11.1964C40.6854 9.06399 39.5665 7.6043 37.9282 7.56745C35.8176 7.5182 34.1912 9.0402 34.1455 11.2018C34.0979 13.4531 34.1318 15.7061 34.1302 17.9585V19.2942H30.126V4.50703H33.7404L33.9025 5.71277C35.2403 4.90046 36.7067 4.3515 38.2303 4.09261C41.5349 3.63632 44.3974 5.78681 44.6658 9.38326C44.9056 12.634 44.7146 15.9212 44.7146 19.2878ZM54.0228 19.7056C49.8013 19.7645 46.3335 16.1946 46.2774 11.7314V11.6443C46.2621 7.18519 49.6629 3.55289 53.881 3.52408C58.099 3.49527 61.5439 7.07999 61.5835 11.5395C61.6226 15.9989 58.2414 19.6513 54.0237 19.7056H54.0228V19.7056ZM53.9498 7.55438C51.8243 7.55941 50.1017 9.37756 50.0934 11.6242C50.09 12.6915 50.4878 13.7166 51.1996 14.4742C51.5519 14.8491 51.9706 15.147 52.432 15.3509C52.8933 15.5547 53.3882 15.6605 53.8883 15.6622H53.9517C56.0328 15.6435 57.7259 13.8836 57.7789 11.6835C57.7681 9.43887 56.0721 7.61 53.9498 7.55438V7.55438ZM67.2491 19.6225L60.91 4.49732H65.4542L69.1573 14.0467L72.8043 4.49732H77.068L71.4576 19.6222H67.2494L67.2491 19.6225ZM91.9995 11.5649C92.0452 16.0267 88.6653 19.6858 84.4448 19.7428C80.2242 19.7997 76.7571 16.2331 76.6953 11.7713V11.6289C76.6784 7.16073 80.091 3.52442 84.3173 3.50666C88.5435 3.48891 91.983 7.09674 91.9999 11.5646H91.9995V11.5649ZM84.3192 7.55639C82.1984 7.61871 80.5063 9.44758 80.4945 11.6905C80.5567 13.8896 82.2504 15.6441 84.3312 15.6649C86.4339 15.6917 88.1584 13.9111 88.1838 11.6882V11.6195C88.1667 9.37422 86.4431 7.56209 84.3192 7.55639V7.55639Z" fill="black"/>
<g opacity="0.95" clip-path="url(#clip0_5446_6355)">
<path d="M122.133 1.80859V19.1557H118.45V7.21823L113.066 11.9803L107.683 7.21823V19.1557H104V1.80859H107.622L113.066 6.62243L118.511 1.80859H122.133Z" fill="black"/>
<path d="M130.189 5.74609C126.817 5.74609 124.084 8.71643 124.084 12.3819C124.084 16.0473 126.817 19.0133 130.189 19.0133C133.561 19.0133 136.294 16.043 136.294 12.3819C136.294 8.72075 133.561 5.74609 130.189 5.74609ZM130.767 15.5422C130.144 15.5328 129.536 15.3392 129.022 14.9856C128.508 14.632 128.11 14.1343 127.877 13.555C127.645 12.9758 127.59 12.3408 127.717 11.73C127.845 11.1191 128.151 10.5597 128.596 10.1221C129.04 9.68439 129.605 9.38802 130.217 9.2702C130.83 9.15238 131.464 9.21837 132.04 9.45989C132.615 9.7014 133.106 10.1077 133.451 10.6276C133.797 11.1475 133.98 11.7578 133.98 12.3819C133.976 12.8003 133.89 13.2139 133.727 13.5992C133.564 13.9845 133.326 14.3338 133.028 14.6273C132.73 14.9208 132.377 15.1526 131.989 15.3096C131.601 15.4665 131.186 15.5456 130.767 15.5422V15.5422Z" fill="black"/>
<path d="M146.781 5.74609C143.409 5.74609 140.698 8.71643 140.698 12.3819C140.698 16.0473 143.43 19.0133 146.802 19.0133C150.174 19.0133 152.907 16.043 152.907 12.3819C152.907 8.72075 150.152 5.74609 146.781 5.74609ZM147.372 15.5422C146.748 15.5328 146.141 15.3392 145.627 14.9856C145.112 14.632 144.714 14.1343 144.482 13.555C144.25 12.9758 144.194 12.3408 144.322 11.73C144.45 11.1191 144.755 10.5597 145.2 10.1221C145.645 9.68439 146.209 9.38802 146.822 9.2702C147.435 9.15238 148.069 9.21837 148.644 9.45989C149.22 9.7014 149.711 10.1077 150.056 10.6276C150.401 11.1475 150.585 11.7578 150.584 12.3819C150.581 12.8003 150.495 13.2139 150.332 13.5992C150.169 13.9845 149.931 14.3338 149.633 14.6273C149.334 14.9208 148.981 15.1526 148.593 15.3096C148.206 15.4665 147.791 15.5456 147.372 15.5422V15.5422Z" fill="black"/>
<path d="M238.71 1.37207V18.7278H235.044V1.37207" fill="black"/>
<path d="M244.944 14.7472L245.937 14.4666L247.474 14.0349L250.583 13.1714L253.916 12.2345L254.024 12.2043C253.989 11.8152 253.923 11.4297 253.825 11.0516V11.0516C252.871 7.26095 249.21 4.92526 245.674 5.81032C242.138 6.69537 240.035 10.5076 240.989 14.2853C241.116 14.7792 241.291 15.2593 241.512 15.7186C241.95 16.6441 242.584 17.4631 243.371 18.1185C244.157 18.7739 245.077 19.2499 246.067 19.5136C246.631 19.6575 247.212 19.7229 247.794 19.7079C248.255 19.6953 248.714 19.6316 249.162 19.5179C249.27 19.492 249.382 19.4618 249.486 19.4272L249.844 19.302C251.346 18.6764 252.688 17.7201 253.769 16.5044L251.476 14.5573C249.939 15.7402 249.205 16.0122 248.424 16.2065C248.007 16.2948 247.577 16.2999 247.159 16.2214C246.74 16.1428 246.341 15.9822 245.985 15.7489C245.559 15.4967 245.185 15.1655 244.884 14.7731L244.944 14.7472ZM243.951 12.2173C243.99 11.488 244.253 10.7884 244.704 10.2142C245.155 9.64003 245.773 9.21927 246.473 9.00947C246.694 8.95388 246.922 8.92347 247.15 8.91881C247.991 8.90969 248.806 9.20749 249.443 9.75637C249.699 9.96501 249.927 10.2059 250.121 10.4731L243.951 12.2173Z" fill="black"/>
<path d="M138.841 6.40625H135.176V19.0129H138.841V6.40625Z" fill="black"/>
<path d="M179.191 5.74609C175.819 5.74609 173.086 8.71643 173.086 12.3819C173.086 16.0473 175.819 19.0133 179.191 19.0133C182.563 19.0133 185.296 16.043 185.296 12.3819C185.296 8.72075 182.576 5.74609 179.191 5.74609ZM179.782 15.5422C179.159 15.5303 178.553 15.3345 178.041 14.9794C177.528 14.6243 177.132 14.1257 176.902 13.5463C176.672 12.9668 176.618 12.3323 176.747 11.7224C176.876 11.1124 177.183 10.5542 177.628 10.1178C178.073 9.68144 178.638 9.38633 179.25 9.26953C179.862 9.15273 180.496 9.21944 181.07 9.4613C181.645 9.70315 182.135 10.1094 182.48 10.629C182.825 11.1486 183.008 11.7584 183.007 12.3819C183.004 12.8014 182.918 13.2161 182.754 13.6022C182.59 13.9884 182.351 14.3383 182.051 14.6319C181.752 14.9255 181.397 15.1571 181.008 15.3133C180.618 15.4695 180.202 15.5473 179.782 15.5422V15.5422Z" fill="black"/>
<path d="M187.843 6.40625H184.177V19.0129H187.843V6.40625Z" fill="black"/>
<path d="M223.504 5.74609C220.132 5.74609 217.399 8.71643 217.399 12.3819C217.399 16.0473 220.137 19.0133 223.504 19.0133C226.872 19.0133 229.609 16.043 229.609 12.3819C229.609 8.72075 226.876 5.74609 223.504 5.74609ZM224.096 15.5422C223.472 15.5328 222.864 15.3392 222.35 14.9856C221.836 14.632 221.438 14.1343 221.206 13.555C220.973 12.9758 220.918 12.3408 221.046 11.73C221.173 11.1191 221.479 10.5597 221.924 10.1221C222.368 9.68439 222.933 9.38802 223.546 9.2702C224.158 9.15238 224.792 9.21837 225.368 9.45989C225.943 9.7014 226.434 10.1077 226.78 10.6276C227.125 11.1475 227.308 11.7578 227.308 12.3819C227.304 12.8003 227.219 13.2139 227.055 13.5992C226.892 13.9845 226.654 14.3338 226.356 14.6273C226.058 14.9208 225.705 15.1526 225.317 15.3096C224.929 15.4665 224.514 15.5456 224.096 15.5422V15.5422Z" fill="black"/>
<path d="M232.156 6.40625H228.491V19.0129H232.156V6.40625Z" fill="black"/>
<path d="M170.979 18.8968H167.15V11.009C167.15 9.96852 165.686 8.80284 164.076 8.85033C162.578 8.90213 161.032 10.5773 161.032 11.6264H158.83C161.33 8.78125 161.485 6.10449 164.378 6.10449C167.176 6.10449 170.988 7.85734 170.988 11.2853L170.979 18.8968Z" fill="black"/>
<path d="M161.477 6.40625H157.812V19.0129H161.477V6.40625Z" fill="black"/>
<path d="M146.828 25.0007C145.135 25.0003 143.486 24.4621 142.118 23.4637L144.246 20.5279C144.996 21.084 145.903 21.3865 146.837 21.3914C148.564 21.3914 151.495 20.7351 151.495 16.3401V6.41016H155.122V16.3401C155.113 21.5943 151.862 25.0007 146.828 25.0007Z" fill="black"/>
<path d="M202.185 11.0301C201.894 10.6277 201.541 10.2736 201.14 9.98099C200.871 9.79037 200.581 9.62968 200.277 9.50177C199.381 9.14868 198.452 8.88406 197.505 8.71169L197.384 8.68579C197.338 8.67203 197.29 8.66193 197.242 8.65557L197.129 8.63398H197.047L196.357 8.49151C195.925 8.39653 195.571 8.30155 195.295 8.21088C194.922 8.09838 194.584 7.89512 194.31 7.6194L194.232 7.51579C194.031 7.23515 193.932 6.89371 193.952 6.5487C193.941 6.29424 194.003 6.04198 194.129 5.82062C194.255 5.59927 194.44 5.41773 194.664 5.29667C195.351 4.94811 196.118 4.78725 196.888 4.8304C197.474 4.83457 198.056 4.92625 198.615 5.10239L198.917 5.20169C199.277 5.3214 199.629 5.46565 199.97 5.63342L202.647 3.26752L202.535 3.19844C201.972 2.81294 201.373 2.4819 200.747 2.20977C200.127 1.9385 199.482 1.72742 198.822 1.57944C198.188 1.4386 197.541 1.36623 196.892 1.36357C196.139 1.35795 195.388 1.43468 194.651 1.59239C194.216 1.68597 193.791 1.82189 193.382 1.99822C192.459 2.38134 191.674 3.03639 191.133 3.87626C190.855 4.31733 190.654 4.80185 190.537 5.30962C190.416 5.81147 190.357 6.32612 190.36 6.84228C190.355 7.37993 190.414 7.91626 190.537 8.4397C190.657 8.95997 190.886 9.44864 191.21 9.87306C191.724 10.5551 192.424 11.0739 193.227 11.3669C193.558 11.485 193.895 11.5859 194.237 11.6691C194.798 11.8159 195.433 11.9454 196.132 12.0576L196.361 12.0835C196.413 12.099 196.467 12.1091 196.521 12.1138C197.057 12.1927 197.588 12.3067 198.109 12.4548C198.467 12.5542 198.794 12.7429 199.059 13.0031C199.179 13.1361 199.271 13.2917 199.33 13.4608C199.388 13.6298 199.412 13.8089 199.4 13.9875C199.407 14.2678 199.336 14.5446 199.196 14.7875C199.056 15.0305 198.852 15.2301 198.606 15.3647C198.098 15.6476 197.533 15.8128 196.952 15.8483C196.724 15.8699 196.482 15.8785 196.227 15.8785C195.555 15.8792 194.885 15.7966 194.232 15.6324C194.021 15.5763 193.801 15.5158 193.598 15.4424C193.085 15.2712 192.593 15.0439 192.13 14.7646L189.483 17.0701L189.587 17.1564C189.882 17.3994 190.194 17.6216 190.52 17.8213C190.83 18.0135 191.151 18.1865 191.482 18.3394C191.616 18.4041 191.754 18.4603 191.914 18.5164C192.508 18.7609 193.124 18.9488 193.753 19.0776C194.56 19.2476 195.381 19.333 196.206 19.3324C196.452 19.3324 196.693 19.3324 196.931 19.3324C197.931 19.2898 198.917 19.0766 199.845 18.702C200.789 18.3317 201.599 17.6845 202.168 16.8456C202.721 15.9653 203.001 14.9405 202.971 13.9011C203.018 12.8853 202.743 11.8804 202.185 11.0301V11.0301Z" fill="black"/>
<path d="M216.212 16.7461L213.915 14.7169L213.583 14.4233C213.285 14.7678 212.917 15.0437 212.502 15.2322C212.088 15.4208 211.638 15.5175 211.182 15.5156C210.367 15.5272 209.579 15.2162 208.991 14.6503C208.404 14.0843 208.063 13.3092 208.044 12.4935C208.045 11.7116 208.355 10.9618 208.907 10.4082C209.45 9.85607 210.175 9.5201 210.947 9.4629C211.719 9.40571 212.486 9.63121 213.104 10.0974L215.867 7.65374C215.209 7.03712 214.435 6.55646 213.591 6.23935C212.747 5.92223 211.848 5.77489 210.947 5.80578C210.046 5.83666 209.16 6.04517 208.339 6.41933C207.519 6.79349 206.78 7.32595 206.166 7.98618C205.171 9.0604 204.562 10.4348 204.434 11.8931C204.305 13.3515 204.666 14.8111 205.458 16.0423C206.038 16.9558 206.833 17.7144 207.772 18.2528C208.808 18.8539 209.984 19.1711 211.182 19.1724H211.437C211.861 19.1556 212.283 19.1007 212.698 19.0084C214.048 18.7042 215.274 17.9964 216.212 16.9792C216.251 16.9404 216.286 16.8972 216.324 16.854L216.212 16.7461Z" fill="black"/>
</g>
<path d="M263.927 0.758789C260.992 0.758789 258.613 3.13824 258.613 6.07281C258.613 9.00739 260.992 11.3868 263.927 11.3868C266.861 11.3868 269.241 9.00739 269.241 6.07281C269.241 3.13824 266.861 0.758789 263.927 0.758789ZM263.927 10.4854C261.49 10.4854 259.514 8.5092 259.514 6.07281C259.514 3.63643 261.49 1.66028 263.927 1.66028C266.363 1.66028 268.339 3.63643 268.339 6.07281C268.339 8.5092 266.363 10.4854 263.927 10.4854Z" fill="black"/>
<path d="M264.965 6.51585C265.378 6.36402 265.895 5.93463 265.895 5.10194C265.895 4.25739 265.355 3.54688 264.184 3.54688H262.338C262.285 3.54688 262.243 3.58958 262.243 3.64177V8.50505C262.243 8.55724 262.285 8.59994 262.338 8.59994H262.984C263.036 8.59994 263.079 8.55724 263.079 8.50505V6.657H264.131L265.016 8.54538C265.031 8.57859 265.065 8.59994 265.101 8.59994H265.837C265.851 8.59994 265.865 8.59638 265.878 8.59045C265.926 8.56673 265.945 8.51098 265.921 8.46353L264.965 6.51585V6.51585ZM264.046 5.99038H263.079V4.23485H264.068C264.638 4.23485 265.028 4.53495 265.028 5.13041C265.028 5.68672 264.674 5.99038 264.046 5.99038Z" fill="black"/>
<defs>
<clipPath id="clip0_5446_6355">
<rect width="155.722" height="23.9613" fill="black" transform="translate(104 1.04004)"/>
</clipPath>
</defs>
</svg>
