<svg width="14" height="15" viewBox="0 0 14 15" fill="none" xmlns="http://www.w3.org/2000/svg">
<path fill-rule="evenodd" clip-rule="evenodd" d="M2.1002 2.1998H11.9002V3.97623H2.1002V2.1998ZM2.1002 5.16741V6.35867H11.9002V5.16741H2.1002ZM2.1002 12.8998V7.54985H11.9002V12.8998H2.1002ZM0.700195 0.799805H2.1002H11.9002H13.3002V2.1998V12.8998V14.2998H11.9002H2.1002H0.700195V12.8998V2.1998V0.799805ZM7.15769 9.53505C6.63578 9.53505 6.21269 9.96608 6.21269 10.488C6.21269 11.0099 6.63578 11.4409 7.15769 11.4409C7.67959 11.4409 8.10269 11.0099 8.10269 10.488C8.10269 9.96608 7.67959 9.53505 7.15769 9.53505Z" fill="#4A7DDE"/>
</svg>
