<svg width="50" height="30" viewBox="0 0 50 30" fill="none" xmlns="http://www.w3.org/2000/svg">
<g clip-path="url(#clip0_2507_7990)">
<path d="M14.2147 10.9454C14.2147 11.5553 14.2805 12.0498 14.3956 12.4124C14.5272 12.775 14.6918 13.1707 14.9221 13.5992C15.0043 13.7311 15.0372 13.863 15.0372 13.9783C15.0372 14.1432 14.9385 14.308 14.7247 14.4728L13.6882 15.1652C13.5402 15.2641 13.3921 15.3135 13.2605 15.3135C13.096 15.3135 12.9315 15.2311 12.7669 15.0827C12.5366 14.8355 12.3392 14.5717 12.1747 14.308C12.0102 14.0278 11.8457 13.7146 11.6647 13.3355C10.3815 14.852 8.76926 15.6102 6.82799 15.6102C5.44608 15.6102 4.34383 15.2146 3.53771 14.4234C2.7316 13.6322 2.32031 12.5772 2.32031 11.2586C2.32031 9.85746 2.81385 8.7201 3.81739 7.86296C4.82092 7.00582 6.15348 6.57724 7.84798 6.57724C8.40732 6.57724 8.98312 6.6267 9.59182 6.70911C10.2005 6.79153 10.8257 6.9234 11.4837 7.07175V5.86845C11.4837 4.61571 11.2205 3.74208 10.7105 3.23109C10.1841 2.7201 9.2957 2.47285 8.02894 2.47285C7.45314 2.47285 6.8609 2.53878 6.25219 2.68713C5.64349 2.83549 5.05124 3.01681 4.47544 3.24757C4.21222 3.36296 4.01481 3.42889 3.89965 3.46186C3.78449 3.49483 3.70223 3.51131 3.63642 3.51131C3.4061 3.51131 3.29094 3.34648 3.29094 3.00032V2.19263C3.29094 1.92889 3.32385 1.73109 3.4061 1.61571C3.48836 1.50032 3.63642 1.38494 3.86674 1.26955C4.44254 0.972849 5.1335 0.725597 5.93962 0.527794C6.74574 0.313509 7.60121 0.214608 8.50603 0.214608C10.4637 0.214608 11.895 0.659663 12.8163 1.54977C13.7211 2.43988 14.1818 3.79153 14.1818 5.60472V10.9454H14.2147ZM7.5354 13.4509C8.0783 13.4509 8.63764 13.352 9.22989 13.1542C9.82214 12.9564 10.3486 12.5937 10.7928 12.0992C11.056 11.786 11.2534 11.4399 11.3521 11.0443C11.4508 10.6487 11.5166 10.1707 11.5166 9.61021V8.9179C11.0395 8.80252 10.5296 8.70362 10.0031 8.63768C9.47667 8.57175 8.96667 8.53878 8.45668 8.53878C7.35444 8.53878 6.54832 8.75307 6.00542 9.19812C5.46253 9.64318 5.1993 10.2696 5.1993 11.0937C5.1993 11.8685 5.39672 12.4454 5.80801 12.841C6.20284 13.2531 6.77864 13.4509 7.5354 13.4509ZM20.7459 15.2311C20.4497 15.2311 20.2523 15.1816 20.1207 15.0663C19.9891 14.9674 19.8739 14.7366 19.7752 14.4234L15.9092 1.68164C15.8104 1.35197 15.7611 1.13768 15.7611 1.0223C15.7611 0.758564 15.8927 0.610212 16.1559 0.610212H17.7682C18.0807 0.610212 18.2946 0.659663 18.4098 0.775047C18.5414 0.873948 18.6401 1.10472 18.7388 1.4179L21.5026 12.33L24.069 1.4179C24.1513 1.08823 24.25 0.873948 24.3816 0.775047C24.5132 0.676146 24.7435 0.610212 25.0397 0.610212H26.3558C26.6684 0.610212 26.8822 0.659663 27.0138 0.775047C27.1455 0.873948 27.2606 1.10472 27.3264 1.4179L29.9257 12.4619L32.7718 1.4179C32.8705 1.08823 32.9857 0.873948 33.1009 0.775047C33.2325 0.676146 33.4463 0.610212 33.7425 0.610212H35.2724C35.5357 0.610212 35.6837 0.74208 35.6837 1.0223C35.6837 1.10472 35.6673 1.18714 35.6508 1.28604C35.6344 1.38494 35.6015 1.51681 35.5357 1.69812L31.5709 14.4399C31.4722 14.7696 31.357 14.9838 31.2254 15.0827C31.0938 15.1816 30.8799 15.2476 30.6002 15.2476H29.1854C28.8728 15.2476 28.659 15.1981 28.5274 15.0827C28.3958 14.9674 28.2806 14.7531 28.2148 14.4234L25.6648 3.79153L23.1313 14.4069C23.0491 14.7366 22.9503 14.9509 22.8187 15.0663C22.6871 15.1816 22.4568 15.2311 22.1607 15.2311H20.7459ZM41.8859 15.6761C41.0304 15.6761 40.1749 15.5772 39.3524 15.3794C38.5298 15.1816 37.8882 14.9674 37.4605 14.7201C37.1972 14.5717 37.0163 14.4069 36.9505 14.2586C36.8847 14.1102 36.8518 13.9454 36.8518 13.797V12.9564C36.8518 12.6102 36.9834 12.4454 37.2301 12.4454C37.3289 12.4454 37.4276 12.4619 37.5263 12.4948C37.625 12.5278 37.773 12.5937 37.9376 12.6597C38.4969 12.9069 39.1056 13.1047 39.7472 13.2366C40.4053 13.3685 41.0469 13.4344 41.7049 13.4344C42.7414 13.4344 43.5475 13.2531 44.1068 12.8904C44.6662 12.5278 44.9623 12.0003 44.9623 11.3245C44.9623 10.863 44.8142 10.4838 44.5181 10.1707C44.222 9.85746 43.6626 9.57724 42.8565 9.31351L40.4711 8.57175C39.2701 8.19263 38.3817 7.63219 37.8389 6.89043C37.296 6.16516 37.0163 5.35746 37.0163 4.50032C37.0163 3.80801 37.1643 3.19812 37.4605 2.67065C37.7566 2.14318 38.1514 1.68164 38.645 1.319C39.1385 0.939882 39.6979 0.659663 40.3559 0.46186C41.014 0.264058 41.7049 0.181641 42.4288 0.181641C42.7907 0.181641 43.1691 0.198124 43.531 0.247575C43.9094 0.297025 44.2549 0.362959 44.6004 0.428893C44.9294 0.511311 45.242 0.593729 45.5381 0.69263C45.8342 0.791531 46.0645 0.890432 46.2291 0.989333C46.4594 1.1212 46.6239 1.25307 46.7226 1.40142C46.8213 1.53329 46.8707 1.71461 46.8707 1.94538V2.7201C46.8707 3.06626 46.7391 3.24757 46.4923 3.24757C46.3607 3.24757 46.1468 3.18164 45.8671 3.04977C44.9294 2.6212 43.8765 2.40692 42.7085 2.40692C41.7707 2.40692 41.0304 2.55527 40.5204 2.86845C40.0104 3.18164 39.7472 3.65966 39.7472 4.33549C39.7472 4.79703 39.9117 5.19263 40.2408 5.50582C40.5698 5.819 41.1785 6.13219 42.0504 6.41241L44.3865 7.15417C45.571 7.53329 46.4265 8.06076 46.9365 8.73658C47.4465 9.41241 47.6932 10.1871 47.6932 11.0443C47.6932 11.7531 47.5452 12.3959 47.2655 12.9564C46.9694 13.5168 46.5745 14.0113 46.0645 14.4069C45.5546 14.819 44.9459 15.1157 44.2384 15.33C43.4981 15.5608 42.7249 15.6761 41.8859 15.6761Z" fill="#252F3E"/>
<path d="M44.9936 23.6865C39.5811 27.692 31.7173 29.8184 24.9558 29.8184C15.4798 29.8184 6.94152 26.3074 0.492573 20.4723C-0.0174201 20.0107 0.443219 19.3843 1.05192 19.747C8.02731 23.8019 16.6314 26.258 25.5316 26.258C31.5363 26.258 38.1333 25.0052 44.2039 22.4338C45.1087 22.0217 45.8819 23.0272 44.9936 23.6865Z" fill="#FF9900"/>
<path d="M47.2489 21.1155C46.558 20.2254 42.6754 20.687 40.9151 20.9012C40.3887 20.9672 40.3064 20.5056 40.7835 20.1595C43.8764 17.9837 48.9599 18.61 49.5521 19.3353C50.1444 20.0771 49.3876 25.1705 46.4922 27.61C46.048 27.9892 45.6202 27.7913 45.8176 27.2968C46.4757 25.665 47.9399 21.9892 47.2489 21.1155Z" fill="#FF9900"/>
</g>
<defs>
<clipPath id="clip0_2507_7990">
<rect width="50" height="30" fill="white"/>
</clipPath>
</defs>
</svg>
