<svg width="16" height="19" viewBox="0 0 16 19" fill="none" xmlns="http://www.w3.org/2000/svg">
<path d="M0 0.902049C0 0.403861 0.403862 0 0.90205 0H15.0979C15.5961 0 16 0.403862 16 0.90205V17.9551C16 18.4533 15.5961 18.8571 15.0979 18.8571H0.902051C0.403863 18.8571 0 18.4533 0 17.9551V0.902049Z" fill="#F2AF00"/>
<path fill-rule="evenodd" clip-rule="evenodd" d="M8.16254 12.579C11.2354 12.579 13.7265 10.0879 13.7265 7.01508C13.7265 3.94222 11.2354 1.45117 8.16254 1.45117C5.08968 1.45117 2.59863 3.94222 2.59863 7.01508C2.59863 10.0879 5.08968 12.579 8.16254 12.579ZM8.16196 9.2427C9.3911 9.2427 10.3875 8.24629 10.3875 7.01714C10.3875 5.788 9.3911 4.79158 8.16196 4.79158C6.93281 4.79158 5.93639 5.788 5.93639 7.01714C5.93639 8.24629 6.93281 9.2427 8.16196 9.2427Z" fill="white"/>
<path d="M8.22504 10.36C8.71163 9.91644 9.45566 9.91546 9.94341 10.3577C10.4312 10.8 10.5028 11.5406 10.1088 12.0681L7.81368 15.1415C7.23382 15.918 6.11134 16.0266 5.39342 15.3756C4.6755 14.7246 4.67402 13.5969 5.39023 12.9441L8.22504 10.36Z" fill="#F2AF00"/>
<path fill-rule="evenodd" clip-rule="evenodd" d="M7.21014 14.6908L9.50529 11.6174C9.6669 11.401 9.63752 11.0972 9.43743 10.9157C9.23733 10.7343 8.93211 10.7347 8.73249 10.9167L5.89767 13.5008C5.5098 13.8543 5.5106 14.4651 5.89941 14.8176C6.28821 15.1702 6.8961 15.1114 7.21014 14.6908ZM9.94341 10.3577C9.45566 9.91546 8.71163 9.91644 8.22504 10.36L5.39023 12.9441C4.67402 13.5969 4.6755 14.7246 5.39342 15.3756C6.11134 16.0266 7.23382 15.918 7.81368 15.1415L10.1088 12.0681C10.5028 11.5406 10.4312 10.8 9.94341 10.3577Z" fill="white"/>
</svg>
