<svg width="12" height="24" viewBox="0 0 12 24" fill="none" xmlns="http://www.w3.org/2000/svg">
<path fill-rule="evenodd" clip-rule="evenodd" d="M5.00103 0H0.6C0.268629 0 0 0.26863 0 0.600001V23.4C0 23.7314 0.268629 24 0.6 24H11.4C11.7314 24 12 23.7314 12 23.4V0.6C12 0.268629 11.7314 0 11.4 0H6.99897C6.97498 0.554066 6.5369 0.995584 6 0.995584C5.4631 0.995584 5.02502 0.554066 5.00103 0Z" fill="#8E8E8E"/>
<rect x="11.2148" y="23" width="1.21472" height="1.4" transform="rotate(-180 11.2148 23)" fill="white"/>
<rect x="8.21484" y="23" width="1.40359" height="2" transform="rotate(-180 8.21484 23)" fill="white"/>
<rect x="5.21484" y="23" width="1.40359" height="2" transform="rotate(-180 5.21484 23)" fill="white"/>
<rect x="2.21484" y="23" width="1.21472" height="1.4" transform="rotate(-180 2.21484 23)" fill="white"/>
<path fill-rule="evenodd" clip-rule="evenodd" d="M4 0C4 0.262644 4.05173 0.522716 4.15224 0.765367C4.25275 1.00802 4.40007 1.2285 4.58579 1.41421C4.7715 1.59993 4.99198 1.74725 5.23463 1.84776C5.47728 1.94827 5.73736 2 6 2C6.26264 2 6.52272 1.94827 6.76537 1.84776C7.00802 1.74725 7.2285 1.59993 7.41421 1.41421C7.59993 1.2285 7.74725 1.00802 7.84776 0.765367C7.94827 0.522716 8 0.262644 8 0H7.52679C7.52679 0.200501 7.4873 0.399038 7.41057 0.584277C7.33384 0.769515 7.22138 0.937827 7.0796 1.0796C6.93783 1.22138 6.76952 1.33384 6.58428 1.41057C6.39904 1.4873 6.2005 1.52679 6 1.52679C5.7995 1.52679 5.60096 1.4873 5.41572 1.41057C5.23048 1.33384 5.06217 1.22138 4.9204 1.0796C4.77862 0.937827 4.66616 0.769515 4.58943 0.584277C4.5127 0.399038 4.47321 0.200501 4.47321 0H4Z" fill="white"/>
<path fill-rule="evenodd" clip-rule="evenodd" d="M4.4 5.4V14.6H7.6V5.4H4.4ZM3.4 4C3.17909 4 3 4.17909 3 4.4V15.6C3 15.8209 3.17909 16 3.4 16H8.6C8.82091 16 9 15.8209 9 15.6V4.4C9 4.17909 8.82091 4 8.6 4H3.4Z" fill="white"/>
</svg>
