<svg width="16" height="19" viewBox="0 0 16 19" fill="none" xmlns="http://www.w3.org/2000/svg">
<rect width="16" height="18.8571" rx="1" fill="#2A68BF"/>
<circle cx="8.1616" cy="7.01658" r="2.22556" fill="#2A68BF"/>
<rect x="1.82227" y="15.791" width="1.21472" height="1.82209" fill="white"/>
<rect x="5.46631" y="14.8037" width="1.40359" height="2.80718" fill="white"/>
<rect x="9.2998" y="14.8037" width="1.40359" height="2.80718" fill="white"/>
<rect x="13.1318" y="15.791" width="1.21472" height="1.82209" fill="white"/>
<g clip-path="url(#clip0_4750_7557)">
<path d="M4.57378 10.4181C4.57378 10.8584 4.93037 11.2153 5.37094 11.2153H10.4196C10.8599 11.2153 11.2168 10.8584 11.2168 10.4181V5.36943C11.2168 4.92913 10.8599 4.57227 10.4196 4.57227H5.37094C4.93037 4.57227 4.57378 4.92913 4.57378 5.36943V10.4181Z" fill="white"/>
<path d="M12.1118 10.0713H10.7832V10.5589H12.1118V10.0713Z" fill="white"/>
<path d="M12.1118 9.10645H10.7832V9.59404H12.1118V9.10645Z" fill="white"/>
<path d="M12.1118 8.14062H10.7832V8.62822H12.1118V8.14062Z" fill="white"/>
<path d="M12.1118 7.1748H10.7832V7.6624H12.1118V7.1748Z" fill="white"/>
<path d="M12.1118 6.20996H10.7832V6.69756H12.1118V6.20996Z" fill="white"/>
<path d="M12.1118 5.24414H10.7832V5.73174H12.1118V5.24414Z" fill="white"/>
<path d="M5.01172 10.0645H3.68311V10.5518H5.01172V10.0645Z" fill="white"/>
<path d="M5.01172 9.09863H3.68311V9.58597H5.01172V9.09863Z" fill="white"/>
<path d="M5.01172 8.13281H3.68311V8.62041H5.01172V8.13281Z" fill="white"/>
<path d="M5.01172 7.16797H3.68311V7.65557H5.01172V7.16797Z" fill="white"/>
<path d="M5.01172 6.20215H3.68311V6.69001H5.01172V6.20215Z" fill="white"/>
<path d="M5.01172 5.2373H3.68311V5.7249H5.01172V5.2373Z" fill="white"/>
<path d="M5.7251 3.67676H5.23776V5.00536H5.7251V3.67676Z" fill="white"/>
<path d="M6.69141 3.67676H6.20407V5.00536H6.69141V3.67676Z" fill="white"/>
<path d="M7.65625 3.67676H7.16892V5.00536H7.65625V3.67676Z" fill="white"/>
<path d="M8.62109 3.67676H8.13376V5.00536H8.62109V3.67676Z" fill="white"/>
<path d="M9.5874 3.67676H9.0998V5.00536H9.5874V3.67676Z" fill="white"/>
<path d="M10.5527 3.67676H10.0651V5.00536H10.5527V3.67676Z" fill="white"/>
<path d="M5.7251 10.7773H5.23776V12.1059H5.7251V10.7773Z" fill="white"/>
<path d="M6.69141 10.7773H6.20407V12.1059H6.69141V10.7773Z" fill="white"/>
<path d="M7.65674 10.7773H7.16914V12.1059H7.65674V10.7773Z" fill="white"/>
<path d="M8.62109 10.7773H8.13376V12.1059H8.62109V10.7773Z" fill="white"/>
<path d="M9.5874 10.7773H9.0998V12.1059H9.5874V10.7773Z" fill="white"/>
<path d="M10.5527 10.7773H10.0651V12.1059H10.5527V10.7773Z" fill="white"/>
<rect x="6.47852" y="6.47656" width="2.83436" height="2.83436" fill="#2A68BF"/>
</g>
<defs>
<clipPath id="clip0_4750_7557">
<rect width="8.50307" height="8.50307" fill="white" transform="matrix(-1 0 0 1 12.147 3.64258)"/>
</clipPath>
</defs>
</svg>
