<svg width="30" height="25" viewBox="0 0 30 25" fill="none" xmlns="http://www.w3.org/2000/svg">
<path d="M7 13.5C7 7.14873 12.1487 2 18.5 2C24.8513 2 30 7.14873 30 13.5C30 19.8513 24.8513 25 18.5 25C12.1487 25 7 19.8513 7 13.5Z" fill="#A2C7FB"/>
<rect x="7.5" y="2.5" width="22" height="22" rx="11" fill="#EEF5FB" stroke="#003B67" stroke-dasharray="2 2"/>
<path d="M18.5 24.5C18.209 24.5 17.9207 24.4887 17.6356 24.4666L17.5581 25.4636C17.869 25.4877 18.1831 25.5 18.5 25.5V24.5ZM15.9306 24.1984C15.3653 24.0632 14.817 23.8843 14.2895 23.6655L13.9064 24.5892C14.4823 24.828 15.0808 25.0233 15.6979 25.171L15.9306 24.1984ZM12.7522 22.8808C12.26 22.5785 11.7933 22.2385 11.3562 21.8648L10.7064 22.6249C11.183 23.0324 11.6919 23.4032 12.2289 23.7329L12.7522 22.8808ZM10.1352 20.6438C9.76149 20.2067 9.42151 19.74 9.11923 19.2478L8.26708 19.7711C8.59683 20.3081 8.96762 20.817 9.37507 21.2936L10.1352 20.6438ZM8.33449 17.7105C8.11571 17.183 7.93683 16.6347 7.80159 16.0694L6.82904 16.3021C6.97667 16.9192 7.17195 17.5177 7.41076 18.0936L8.33449 17.7105ZM7.53344 14.3644C7.51129 14.0793 7.5 13.791 7.5 13.5H6.5C6.5 13.8169 6.51229 14.131 6.53645 14.4419L7.53344 14.3644ZM7.5 13.5C7.5 13.209 7.51129 12.9207 7.53344 12.6356L6.53645 12.5581C6.51229 12.869 6.5 13.1831 6.5 13.5H7.5ZM7.80159 10.9306C7.93683 10.3653 8.11571 9.81705 8.33449 9.28947L7.41076 8.90641C7.17195 9.4823 6.97667 10.0808 6.82904 10.6979L7.80159 10.9306ZM9.11923 7.75221C9.42151 7.25997 9.76149 6.79327 10.1352 6.35616L9.37507 5.70636C8.96762 6.18297 8.59683 6.69194 8.26708 7.22892L9.11923 7.75221ZM11.3562 5.13517C11.7933 4.76149 12.26 4.42151 12.7522 4.11923L12.2289 3.26708C11.6919 3.59683 11.183 3.96762 10.7064 4.37507L11.3562 5.13517ZM14.2895 3.33449C14.817 3.11571 15.3653 2.93683 15.9306 2.80159L15.6979 1.82904C15.0808 1.97667 14.4823 2.17195 13.9064 2.41076L14.2895 3.33449ZM17.6356 2.53344C17.9207 2.51129 18.209 2.5 18.5 2.5V1.5C18.1831 1.5 17.869 1.51229 17.5581 1.53645L17.6356 2.53344ZM18.5 2.5C18.791 2.5 19.0793 2.51129 19.3644 2.53344L19.4419 1.53645C19.131 1.51229 18.8169 1.5 18.5 1.5V2.5ZM21.0694 2.80159C21.6347 2.93683 22.183 3.11571 22.7105 3.33449L23.0936 2.41076C22.5177 2.17195 21.9192 1.97667 21.3021 1.82904L21.0694 2.80159ZM24.2478 4.11923C24.74 4.42151 25.2067 4.76149 25.6438 5.13517L26.2936 4.37507C25.817 3.96762 25.3081 3.59683 24.7711 3.26708L24.2478 4.11923ZM26.8648 6.35616C27.2385 6.79327 27.5785 7.25997 27.8808 7.75221L28.7329 7.22891C28.4032 6.69194 28.0324 6.18297 27.6249 5.70636L26.8648 6.35616ZM28.6655 9.28946C28.8843 9.81704 29.0632 10.3653 29.1984 10.9306L30.171 10.6979C30.0233 10.0808 29.828 9.4823 29.5892 8.90641L28.6655 9.28946ZM29.4666 12.6356C29.4887 12.9207 29.5 13.209 29.5 13.5H30.5C30.5 13.1831 30.4877 12.869 30.4636 12.5581L29.4666 12.6356ZM29.5 13.5C29.5 13.791 29.4887 14.0793 29.4666 14.3644L30.4636 14.4419C30.4877 14.131 30.5 13.8169 30.5 13.5H29.5ZM29.1984 16.0694C29.0632 16.6347 28.8843 17.183 28.6655 17.7105L29.5892 18.0936C29.828 17.5177 30.0233 16.9192 30.171 16.3021L29.1984 16.0694ZM27.8808 19.2478C27.5785 19.74 27.2385 20.2067 26.8648 20.6438L27.6249 21.2936C28.0324 20.817 28.4032 20.3081 28.7329 19.7711L27.8808 19.2478ZM25.6438 21.8648C25.2067 22.2385 24.74 22.5785 24.2478 22.8808L24.7711 23.7329C25.3081 23.4032 25.817 23.0324 26.2936 22.6249L25.6438 21.8648ZM22.7105 23.6655C22.183 23.8843 21.6347 24.0632 21.0694 24.1984L21.3021 25.171C21.9192 25.0233 22.5177 24.828 23.0936 24.5892L22.7105 23.6655ZM19.3644 24.4666C19.0793 24.4887 18.791 24.5 18.5 24.5V25.5C18.8169 25.5 19.131 25.4877 19.4419 25.4636L19.3644 24.4666ZM18.5 24C18.2219 24 17.9466 23.9892 17.6743 23.9681L17.5194 25.9621C17.8431 25.9872 18.1702 26 18.5 26V24ZM16.0469 23.7121C15.5076 23.5831 14.9844 23.4124 14.481 23.2036L13.7149 25.0511C14.3149 25.2999 14.9386 25.5034 15.5815 25.6572L16.0469 23.7121ZM13.0139 22.4547C12.544 22.1661 12.0984 21.8416 11.6811 21.4848L10.3815 23.005C10.8778 23.4293 11.4079 23.8155 11.9673 24.159L13.0139 22.4547ZM10.5152 20.3189C10.1584 19.9016 9.83385 19.456 9.54531 18.9861L7.84101 20.0327C8.18449 20.5921 8.57069 21.1222 8.99502 21.6185L10.5152 20.3189ZM8.79635 17.519C8.58759 17.0156 8.41691 16.4924 8.28787 15.9531L6.34277 16.4185C6.49659 17.0614 6.70007 17.6851 6.9489 18.2851L8.79635 17.519ZM8.03194 14.3257C8.01079 14.0534 8 13.7781 8 13.5H6C6 13.8298 6.0128 14.1569 6.03795 14.4806L8.03194 14.3257ZM8 13.5C8 13.2219 8.01079 12.9466 8.03194 12.6743L6.03795 12.5194C6.0128 12.8431 6 13.1702 6 13.5H8ZM8.28787 11.0469C8.41691 10.5076 8.58759 9.98442 8.79635 9.48099L6.9489 8.71489C6.70007 9.31493 6.49659 9.93859 6.34277 10.5815L8.28787 11.0469ZM9.54531 8.01386C9.83385 7.54398 10.1584 7.09843 10.5152 6.68106L8.99501 5.38146C8.57069 5.87782 8.18449 6.40793 7.841 6.96727L9.54531 8.01386ZM11.6811 5.51522C12.0984 5.15843 12.544 4.83385 13.0139 4.54531L11.9673 2.84101C11.4079 3.18449 10.8778 3.57069 10.3815 3.99502L11.6811 5.51522ZM14.481 3.79635C14.9844 3.58759 15.5076 3.41691 16.0469 3.28787L15.5815 1.34277C14.9386 1.49659 14.3149 1.70007 13.7149 1.9489L14.481 3.79635ZM17.6743 3.03194C17.9466 3.01079 18.2219 3 18.5 3V1C18.1702 1 17.8431 1.0128 17.5194 1.03795L17.6743 3.03194ZM18.5 3C18.7781 3 19.0534 3.01079 19.3257 3.03194L19.4806 1.03795C19.1569 1.0128 18.8298 1 18.5 1V3ZM20.9531 3.28787C21.4924 3.41691 22.0156 3.58759 22.519 3.79635L23.2851 1.9489C22.6851 1.70007 22.0614 1.49659 21.4185 1.34277L20.9531 3.28787ZM23.9861 4.54531C24.456 4.83385 24.9016 5.15843 25.3189 5.51522L26.6185 3.99501C26.1222 3.57069 25.5921 3.18449 25.0327 2.841L23.9861 4.54531ZM26.4848 6.68106C26.8416 7.09842 27.1661 7.54398 27.4547 8.01386L29.159 6.96727C28.8155 6.40792 28.4293 5.87782 28.005 5.38146L26.4848 6.68106ZM28.2036 9.48099C28.4124 9.98441 28.5831 10.5076 28.7121 11.0469L30.6572 10.5815C30.5034 9.93859 30.2999 9.31493 30.0511 8.71488L28.2036 9.48099ZM28.9681 12.6743C28.9892 12.9466 29 13.2219 29 13.5H31C31 13.1702 30.9872 12.8431 30.9621 12.5194L28.9681 12.6743ZM29 13.5C29 13.7781 28.9892 14.0534 28.9681 14.3257L30.9621 14.4806C30.9872 14.1569 31 13.8298 31 13.5H29ZM28.7121 15.9531C28.5831 16.4924 28.4124 17.0156 28.2036 17.519L30.0511 18.2851C30.2999 17.6851 30.5034 17.0614 30.6572 16.4185L28.7121 15.9531ZM27.4547 18.9861C27.1661 19.456 26.8416 19.9016 26.4848 20.3189L28.005 21.6185C28.4293 21.1222 28.8155 20.5921 29.159 20.0327L27.4547 18.9861ZM25.3189 21.4848C24.9016 21.8416 24.456 22.1661 23.9861 22.4547L25.0327 24.159C25.5921 23.8155 26.1222 23.4293 26.6185 23.005L25.3189 21.4848ZM22.519 23.2036C22.0156 23.4124 21.4924 23.5831 20.9531 23.7121L21.4185 25.6572C22.0614 25.5034 22.6851 25.2999 23.2851 25.0511L22.519 23.2036ZM19.3257 23.9681C19.0534 23.9892 18.7781 24 18.5 24V26C18.8298 26 19.1569 25.9872 19.4806 25.9621L19.3257 23.9681Z" fill="#003B67"/>
<path d="M0 11.5C0 5.14873 5.14873 0 11.5 0C17.8513 0 23 5.14873 23 11.5C23 17.8513 17.8513 23 11.5 23C5.14873 23 0 17.8513 0 11.5Z" fill="white"/>
<rect x="0.5" y="0.5" width="22" height="22" rx="11" fill="white" stroke="#003B67"/>
<path d="M11.5 22C5.70101 22 1 17.299 1 11.5H-1C-1 18.4036 4.59644 24 11.5 24V22ZM22 11.5C22 17.299 17.299 22 11.5 22V24C18.4036 24 24 18.4036 24 11.5H22ZM11.5 1C17.299 1 22 5.70101 22 11.5H24C24 4.59644 18.4036 -1 11.5 -1V1ZM11.5 -1C4.59644 -1 -1 4.59644 -1 11.5H1C1 5.70101 5.70101 1 11.5 1V-1Z" fill="#003B67"/>
<path d="M17.998 7.08338V8.70709H17V7.08338H15.499V6.00271H17V6H17.998V6.00271V7.08338ZM6 6.00271V6H6.998V6.00271H8.499V7.08338H6.998V8.70709H6V7.08338V6.00271ZM12.1965 12.9859H11.9975V9.50352C11.9975 9.31541 11.9285 9.13501 11.8057 9.002C11.6828 8.86899 11.5162 8.79426 11.3425 8.79426C11.1688 8.79426 11.0022 8.86899 10.8793 9.002C10.7565 9.13501 10.6875 9.31541 10.6875 9.50352V16.5555L8.7045 14.3866C8.57729 14.2475 8.41764 14.1483 8.24253 14.0996C8.06742 14.0508 7.88339 14.0544 7.71 14.1099L7.543 14.1635L10.548 18.1624V18.2572L9.897 19L6.74 14.7001C6.65422 14.5832 6.59454 14.4464 6.56561 14.3005C6.53667 14.1545 6.53927 14.0033 6.5732 13.8586C6.60713 13.7139 6.67146 13.5796 6.76119 13.4663C6.85093 13.353 6.96362 13.2636 7.0905 13.2052L7.3055 13.1061C7.5654 12.9865 7.85122 12.9488 8.13005 12.9973C8.40888 13.0459 8.66936 13.1788 8.8815 13.3806L9.658 14.1186V9.42556C9.658 8.94078 9.83584 8.47587 10.1524 8.13308C10.469 7.7903 10.8983 7.59773 11.346 7.59773C11.7937 7.59773 12.223 7.7903 12.5396 8.13308C12.8562 8.47587 13.034 8.94078 13.034 9.42556V11.7888H15.473C15.67 11.7888 15.865 11.8309 16.047 11.9125C16.229 11.9941 16.3944 12.1138 16.5337 12.2646C16.6729 12.4154 16.7834 12.5945 16.8588 12.7915C16.9342 12.9886 16.973 13.1998 16.973 13.4131V18.4331H15.8475V13.5279C15.8475 13.3843 15.7948 13.2466 15.7011 13.145C15.6073 13.0435 15.4801 12.9865 15.3475 12.9865L12.1965 12.9859Z" fill="#003B67"/>
</svg>
