<svg width="38" height="37" viewBox="0 0 38 37" fill="none" xmlns="http://www.w3.org/2000/svg">
<path d="M19.3787 36.4016C19.3204 36.4016 19.2665 36.3883 19.2127 36.3573L1.43509 26.1615C1.33189 26.1039 1.27356 25.9975 1.27356 25.8822V18.9934C1.27356 18.8781 1.33638 18.7717 1.43509 18.7141L19.2127 8.36757C19.262 8.33654 19.3204 8.32324 19.3787 8.32324C19.437 8.32324 19.4954 8.33654 19.5447 8.36757L37.3178 18.7141C37.4165 18.7717 37.4794 18.8781 37.4794 18.9934V25.8822C37.4794 25.9975 37.4165 26.1039 37.3178 26.1615L19.5402 36.3573C19.4909 36.3839 19.4325 36.4016 19.3787 36.4016Z" fill="#2A67BF" fill-opacity="0.3"/>
<path d="M19.3786 8.64721L37.1517 18.9937V25.8826L34.2531 27.5449L19.3786 36.0739L4.49962 27.5449L1.601 25.8826V18.9937L19.3786 8.64721ZM19.3786 8C19.2619 8 19.1497 8.03103 19.0465 8.08866L1.26447 18.4352C1.06256 18.5505 0.941406 18.7632 0.941406 18.9937V25.8826C0.941406 26.1131 1.06704 26.3259 1.26896 26.4411L4.16758 28.1035L19.0465 36.6369C19.1497 36.6946 19.2619 36.7256 19.3741 36.7256C19.4863 36.7256 19.6029 36.6946 19.7017 36.6369L34.5761 28.1035L37.4748 26.4411C37.6767 26.3259 37.8023 26.1131 37.8023 25.8826V18.9937C37.8023 18.7632 37.6812 18.5505 37.4792 18.4352L19.7106 8.08866C19.6074 8.0266 19.4908 8 19.3786 8Z" fill="#2A68BF"/>
<path d="M1.59644 18.994L19.374 29.2607L37.1516 18.994L19.3785 8.64746L1.59644 18.994Z" fill="white"/>
<path d="M19.3735 29.585C19.3152 29.585 19.2613 29.5717 19.2075 29.5407L4.33299 21.0072C4.17595 20.9186 4.1221 20.7191 4.21184 20.5639C4.30159 20.4088 4.5035 20.3556 4.66055 20.4442L19.3735 28.8846L34.082 20.4487C34.239 20.36 34.4409 20.4132 34.5307 20.5684C34.6204 20.7235 34.5666 20.923 34.4095 21.0117L19.5395 29.5407C19.4902 29.5673 19.4318 29.585 19.3735 29.585ZM7.89569 25.7372C7.83736 25.7372 7.77454 25.7195 7.7207 25.6884L6.93098 25.2008C6.77842 25.1077 6.72906 24.9082 6.82778 24.7531C6.92201 24.6024 7.12392 24.5536 7.28097 24.6511L8.07069 25.1387C8.22324 25.2318 8.2726 25.4313 8.17389 25.5865C8.11107 25.6796 8.00787 25.7372 7.89569 25.7372ZM9.8296 26.8188C9.77127 26.8188 9.70845 26.8011 9.6546 26.7701L8.86489 26.2824C8.71233 26.1894 8.66297 25.9899 8.76169 25.8347C8.85592 25.684 9.05783 25.6352 9.21488 25.7328L10.0046 26.2204C10.1572 26.3135 10.2065 26.513 10.1078 26.6681C10.0495 26.7656 9.94177 26.8188 9.8296 26.8188ZM11.7635 27.9005C11.7052 27.9005 11.6424 27.8827 11.5885 27.8517L10.7988 27.3641C10.6462 27.271 10.5969 27.0715 10.6956 26.9164C10.7898 26.7656 10.9917 26.7169 11.1488 26.8144L11.9385 27.302C12.0911 27.3951 12.1404 27.5946 12.0417 27.7498C11.9834 27.8473 11.8757 27.9005 11.7635 27.9005ZM13.7019 28.9821C13.6436 28.9821 13.5808 28.9644 13.5269 28.9334L12.7372 28.4457C12.5846 28.3526 12.5353 28.1532 12.634 27.998C12.7282 27.8473 12.9301 27.7985 13.0872 27.896L13.8769 28.3837C14.0295 28.4768 14.0788 28.6762 13.9801 28.8314C13.9173 28.9289 13.8096 28.9821 13.7019 28.9821ZM15.6358 30.0638C15.5775 30.0638 15.5147 30.046 15.4608 30.015L14.6711 29.5274C14.5185 29.4343 14.4692 29.2348 14.5679 29.0796C14.6621 28.9289 14.864 28.8802 15.0211 28.9777L15.8108 29.4653C15.9634 29.5584 16.0127 29.7579 15.914 29.913C15.8512 30.0106 15.7435 30.0638 15.6358 30.0638ZM17.5697 31.1454C17.5114 31.1454 17.4486 31.1277 17.3947 31.0966L16.605 30.609C16.4524 30.5159 16.4031 30.3164 16.5018 30.1613C16.596 30.0106 16.8024 29.9618 16.955 30.0593L17.7447 30.547C17.8973 30.64 17.9466 30.8395 17.8479 30.9947C17.7851 31.0922 17.6774 31.1454 17.5697 31.1454ZM7.89569 27.9847C7.83736 27.9847 7.77454 27.967 7.7207 27.9359L6.93098 27.4483C6.77842 27.3552 6.72906 27.1557 6.82778 27.0006C6.92201 26.8499 7.12392 26.8011 7.28097 26.8986L8.07069 27.3863C8.22324 27.4793 8.2726 27.6788 8.17389 27.834C8.11107 27.9315 8.00787 27.9847 7.89569 27.9847ZM9.8296 29.0708C9.77127 29.0708 9.70845 29.053 9.6546 29.022L8.86489 28.5344C8.71233 28.4413 8.66297 28.2418 8.76169 28.0867C8.85592 27.9359 9.05783 27.8872 9.21488 27.9847L10.0046 28.4723C10.1572 28.5654 10.2065 28.7649 10.1078 28.9201C10.0495 29.0131 9.94177 29.0708 9.8296 29.0708ZM11.7635 30.1524C11.7052 30.1524 11.6424 30.1347 11.5885 30.1037L10.7988 29.616C10.6462 29.5229 10.5969 29.3235 10.6956 29.1683C10.7898 29.0176 10.9917 28.9688 11.1488 29.0663L11.9385 29.554C12.0911 29.6471 12.1404 29.8465 12.0417 30.0017C11.9834 30.0992 11.8757 30.1524 11.7635 30.1524Z" fill="#2A68BF"/>
<path d="M19.3787 29.2829C19.3204 29.2829 19.2665 29.2696 19.2127 29.2386L1.43509 19.0472C1.33189 18.9896 1.27356 18.8832 1.27356 18.768V11.8791C1.27356 11.7639 1.33638 11.6575 1.43509 11.5999L19.2127 1.25331C19.262 1.22228 19.3204 1.20898 19.3787 1.20898C19.437 1.20898 19.4954 1.22228 19.5447 1.25331L37.3178 11.5999C37.4165 11.6575 37.4794 11.7639 37.4794 11.8791V18.768C37.4794 18.8832 37.4165 18.9896 37.3178 19.0472L19.5402 29.243C19.4909 29.2696 19.4325 29.2829 19.3787 29.2829Z" fill="#2A67BF" fill-opacity="0.3"/>
<path d="M19.3786 1.5325L37.1517 11.879V18.7679L34.2531 20.4302L19.3786 28.9592L4.49962 20.4302L1.601 18.7679V11.879L19.3786 1.5325ZM19.3786 0.880859C19.2619 0.880859 19.1497 0.91189 19.0465 0.969519L1.26447 11.3205C1.06256 11.4357 0.941406 11.6485 0.941406 11.879V18.7679C0.941406 18.9984 1.06704 19.2112 1.26896 19.3264L4.16758 20.9888L19.0465 29.5222C19.1497 29.5799 19.2619 29.6109 19.3741 29.6109C19.4863 29.6109 19.6029 29.5799 19.7017 29.5222L34.5761 20.9888L37.4748 19.3264C37.6767 19.2112 37.8023 18.9984 37.8023 18.7679V11.879C37.8023 11.6485 37.6812 11.4357 37.4792 11.3205L19.7106 0.973952C19.6074 0.91189 19.4908 0.880859 19.3786 0.880859Z" fill="#2A68BF"/>
<path d="M1.59644 11.8788L19.374 22.1411L37.1516 11.8788L19.3785 1.53223L1.59644 11.8788Z" fill="white"/>
<path d="M19.3734 22.4652C19.3151 22.4652 19.2613 22.4519 19.2074 22.4208L1.38194 12.1605C1.2249 12.0719 1.17105 11.8724 1.26079 11.7172C1.35054 11.5621 1.55245 11.5089 1.7095 11.5976L19.3734 21.7692L36.916 11.764C37.073 11.6753 37.275 11.7285 37.3647 11.8836C37.4544 12.0388 37.4006 12.2383 37.2436 12.3269L19.5395 22.4253C19.4901 22.4519 19.4318 22.4652 19.3734 22.4652Z" fill="#2A68BF"/>
<path d="M7.89605 18.6171C7.83772 18.6171 7.7749 18.5994 7.72106 18.5683L6.93134 18.0807C6.77878 17.9876 6.72942 17.7881 6.82814 17.633C6.92236 17.4822 7.12428 17.4335 7.28133 17.531L8.07104 18.0186C8.2236 18.1117 8.27296 18.3112 8.17424 18.4664C8.11143 18.5639 8.00823 18.6171 7.89605 18.6171ZM9.82996 19.6987C9.77162 19.6987 9.70881 19.681 9.65496 19.65L8.86525 19.1623C8.71269 19.0692 8.66333 18.8698 8.76204 18.7146C8.85627 18.5639 9.05819 18.5151 9.21523 18.6127L10.005 19.1003C10.1575 19.1934 10.2069 19.3929 10.1082 19.548C10.0498 19.6455 9.94213 19.6987 9.82996 19.6987ZM11.7639 20.7848C11.7055 20.7848 11.6427 20.7671 11.5889 20.736L10.7992 20.2484C10.6466 20.1553 10.5972 19.9558 10.696 19.8007C10.7902 19.65 10.9921 19.6012 11.1491 19.6987L11.9389 20.1864C12.0914 20.2794 12.1408 20.4789 12.0421 20.6341C11.9837 20.7316 11.876 20.7848 11.7639 20.7848ZM13.7023 21.8664C13.6439 21.8664 13.5811 21.8487 13.5273 21.8177L12.7375 21.3301C12.585 21.237 12.5356 21.0375 12.6343 20.8823C12.7286 20.7316 12.9305 20.6828 13.0875 20.7804L13.8773 21.268C14.0298 21.3611 14.0792 21.5606 13.9805 21.7157C13.9176 21.8133 13.8099 21.8664 13.7023 21.8664ZM15.6362 22.9481C15.5778 22.9481 15.515 22.9304 15.4612 22.8993L14.6715 22.4117C14.5189 22.3186 14.4695 22.1191 14.5683 21.964C14.6625 21.8133 14.8644 21.7645 15.0214 21.862L15.8112 22.3496C15.9637 22.4427 16.0131 22.6422 15.9144 22.7974C15.8515 22.8949 15.7439 22.9481 15.6362 22.9481ZM17.5701 24.0297C17.5117 24.0297 17.4489 24.012 17.3951 23.981L16.6054 23.4933C16.4528 23.4002 16.4034 23.2008 16.5022 23.0456C16.5964 22.8949 16.8028 22.8461 16.9554 22.9437L17.7451 23.4313C17.8976 23.5244 17.947 23.7239 17.8483 23.879C17.7854 23.9765 17.6778 24.0297 17.5701 24.0297ZM7.89605 20.869C7.83772 20.869 7.7749 20.8513 7.72106 20.8203L6.93134 20.3326C6.77878 20.2396 6.72942 20.0401 6.82814 19.8849C6.92236 19.7342 7.12428 19.6854 7.28133 19.783L8.07104 20.2706C8.2236 20.3637 8.27296 20.5632 8.17424 20.7183C8.11143 20.8158 8.00823 20.869 7.89605 20.869ZM9.82996 21.9507C9.77162 21.9507 9.70881 21.9329 9.65496 21.9019L8.86525 21.4143C8.71269 21.3212 8.66333 21.1217 8.76204 20.9666C8.85627 20.8158 9.05819 20.7671 9.21523 20.8646L10.005 21.3522C10.1575 21.4453 10.2069 21.6448 10.1082 21.8C10.0498 21.8975 9.94213 21.9507 9.82996 21.9507ZM11.7639 23.0323C11.7055 23.0323 11.6427 23.0146 11.5889 22.9836L10.7992 22.4959C10.6466 22.4028 10.5972 22.2034 10.696 22.0482C10.7902 21.8975 10.9921 21.8487 11.1491 21.9462L11.9389 22.4339C12.0914 22.527 12.1408 22.7264 12.0421 22.8816C11.9837 22.9791 11.876 23.0323 11.7639 23.0323Z" fill="#2A68BF"/>
<path d="M30.0435 11.5283L26.2923 9.89258L26.2968 10.7393H22.1643L22.1777 12.313H26.3013L26.3058 13.1597L30.0435 11.5283ZM16.6587 10.7393L12.5306 10.7348L12.5217 9.89258L8.78845 11.5283L12.5441 13.1597L12.5396 12.313H16.6632L16.6587 10.7393ZM20.8047 13.2705L18.0542 13.2749L18.0676 15.6377H16.5914L19.4541 17.7833L22.2944 15.6377L20.8226 15.6421L20.8047 13.2705ZM19.3823 5.27344L16.5375 7.41456L18.0138 7.41899L18.0272 9.78176H20.7823L20.7688 7.41899H22.245L19.3823 5.27344Z" fill="#2A68BF" fill-opacity="0.4"/>
</svg>
