<svg width="54" height="54" viewBox="0 0 54 54" fill="none" xmlns="http://www.w3.org/2000/svg">
<g clip-path="url(#clip0_142_512)">
<path d="M46.1893 33.6943L54.01 51.2578L47.8465 54L40.0595 36.5141C35.5916 37.6429 30.8635 37.0602 26.8025 34.8801C22.7416 32.7 19.6409 29.08 18.1084 24.7299C16.576 20.3799 16.7224 15.6137 18.519 11.3661C20.3156 7.11852 23.6328 3.69604 27.8199 1.7699C32.007 -0.156242 36.7619 -0.447077 41.1521 0.954436C45.5423 2.35595 49.2511 5.34869 51.551 9.3457C53.8509 13.3427 54.576 18.0556 53.5841 22.5601C52.5922 27.0645 49.9548 31.0355 46.1893 33.6943ZM47.7774 13.0731C46.5089 10.2223 44.2922 7.89998 41.5049 6.50171C38.7177 5.10344 35.5324 4.71573 32.4916 5.40464C29.4508 6.09354 26.7427 7.81645 24.8286 10.2798C22.9146 12.7432 21.913 15.7947 21.9945 18.9143C22.076 22.034 23.2355 25.0289 25.2756 27.3888C27.3156 29.7487 30.11 31.3276 33.1826 31.8564C36.2552 32.3853 39.4159 31.8315 42.1263 30.2894C44.8367 28.7472 46.9292 26.3121 48.0471 23.3989C48.6875 21.7456 48.9934 19.9815 48.9471 18.2089C48.9008 16.4363 48.5032 14.6906 47.7774 13.0731ZM0.00195312 3.375H13.5073V10.125H0.00532483V3.375H0.00195312ZM10.1356 30.6028H0.0103824V23.8528H10.1356V30.6028ZM30.381 50.625H0.00195312V43.875H30.381V50.625Z" fill="#367BD2"/>
</g>
<defs>
<clipPath id="clip0_142_512">
<rect width="54" height="54" fill="white"/>
</clipPath>
</defs>
</svg>
