<svg width="22" height="22" viewBox="0 0 22 22" fill="none" xmlns="http://www.w3.org/2000/svg">
<path fill-rule="evenodd" clip-rule="evenodd" d="M19.0002 11.3002C19.0002 15.5528 15.5528 19.0002 11.3002 19.0002C7.0476 19.0002 3.6002 15.5528 3.6002 11.3002C3.6002 7.0476 7.0476 3.6002 11.3002 3.6002C15.5528 3.6002 19.0002 7.0476 19.0002 11.3002ZM20.4002 11.3002C20.4002 16.326 16.326 20.4002 11.3002 20.4002C6.2744 20.4002 2.2002 16.326 2.2002 11.3002C2.2002 6.2744 6.2744 2.2002 11.3002 2.2002C16.326 2.2002 20.4002 6.2744 20.4002 11.3002ZM10.6935 7.90285C10.6935 7.43378 11.0737 7.05352 11.5428 7.05352C12.0119 7.05352 12.3921 7.43378 12.3921 7.90285V12.2709C12.3921 12.7399 12.0119 13.1202 11.5428 13.1202C11.0737 13.1202 10.6935 12.7399 10.6935 12.2708V7.90285ZM10.6935 15.1828C10.6935 14.7137 11.0738 14.3335 11.5428 14.3335C12.0119 14.3335 12.3922 14.7137 12.3922 15.1828C12.3922 15.6519 12.0119 16.0321 11.5428 16.0321C11.0738 16.0321 10.6935 15.6519 10.6935 15.1828Z" fill="#F05A58"/>
</svg>
