<svg width="22" height="22" viewBox="0 0 22 22" fill="none" xmlns="http://www.w3.org/2000/svg">
<path d="M10.8123 2.8125C6.39478 2.8125 2.8123 6.3961 2.8123 10.8125C2.8123 15.2289 6.39478 18.8125 10.8123 18.8125C15.2298 18.8125 18.8123 15.2289 18.8123 10.8125C18.8123 6.39395 15.2298 2.8125 10.8123 2.8125ZM11.2342 15.4813C12.4413 15.2332 13.3456 14.1458 13.3456 12.8513C13.3456 10.3724 10.9702 10.353 10.0378 10.353V12.176L6.95508 9.16849L10.0357 6.13936V7.6906C10.6782 7.6906 14.6674 7.72512 14.6674 11.5094C14.6674 13.5482 13.1682 15.2181 11.2342 15.4813Z" fill="#4A7DDE"/>
</svg>
