<svg width="22" height="22" viewBox="0 0 22 22" fill="none" xmlns="http://www.w3.org/2000/svg">
<path fill-rule="evenodd" clip-rule="evenodd" d="M11.1 18.8C15.3526 18.8 18.8 15.3526 18.8 11.1C18.8 6.84741 15.3526 3.4 11.1 3.4C6.84741 3.4 3.4 6.84741 3.4 11.1C3.4 15.3526 6.84741 18.8 11.1 18.8ZM11.1 20.2C16.1258 20.2 20.2 16.1258 20.2 11.1C20.2 6.07421 16.1258 2 11.1 2C6.07421 2 2 6.07421 2 11.1C2 16.1258 6.07421 20.2 11.1 20.2Z" fill="#4A7DDE"/>
<path d="M10.0276 12.7426C10.1886 12.6059 10.3155 12.5028 10.4363 12.3938C11.5917 11.3509 12.7489 10.3088 13.8998 9.26245C14.1789 9.00925 14.4704 8.88182 14.812 9.14675C15.0982 9.36808 15.0553 9.67661 14.6993 9.99939C13.3356 11.2369 11.9673 12.4735 10.5981 13.7076C10.1689 14.0941 9.93547 14.0966 9.51426 13.7202C8.77111 13.0545 8.036 12.3804 7.29196 11.7156C7.01115 11.4649 6.86896 11.2008 7.16139 10.8914C7.40643 10.6324 7.74804 10.6701 8.10486 10.9912C8.74249 11.5655 9.37386 12.1465 10.0276 12.7426Z" fill="#4A7DDE" stroke="#4A7DDE" stroke-width="0.4"/>
</svg>
