<svg width="66" height="66" viewBox="0 0 66 66" fill="none" xmlns="http://www.w3.org/2000/svg">
<path d="M24.6666 50.6668C28.6666 50.6668 31.9999 54.0002 31.9999 58.0002C31.9999 62.0002 28.6666 65.3335 24.6666 65.3335C20.6666 65.3335 17.3332 62.3335 17.3332 58.0002C17.3332 53.6668 20.6666 50.6668 24.6666 50.6668ZM47.3332 50.6668C50.9999 50.6668 53.9999 53.6668 53.9999 57.3335C53.9999 61.0002 50.9999 64.0002 47.3332 64.0002C43.6666 64.0002 40.6666 61.0002 40.6666 57.3335C40.6666 53.6668 43.6666 50.6668 47.3332 50.6668ZM9.9999 27.3335C14.9999 27.3335 19.3332 31.3335 19.3332 36.6668C19.3332 42.0002 15.3332 46.0002 9.9999 46.0002C4.66656 46.0002 0.666565 41.6668 0.666565 36.6668C0.666565 31.6668 4.66656 27.3335 9.9999 27.3335ZM59.9999 34.0002C63.3332 34.0002 65.9999 36.6668 65.9999 40.0002C65.9999 43.3335 63.3332 46.0002 59.9999 46.0002C56.6666 46.0002 53.9999 43.0002 53.9999 40.0002C53.9999 37.0002 56.6666 34.0002 59.9999 34.0002ZM58.9999 14.0002C61.6666 14.0002 63.9999 16.3335 63.9999 19.0002C63.9999 21.6668 61.6666 24.0002 58.9999 24.0002C56.3332 24.0002 53.9999 21.6668 53.9999 19.0002C53.9999 16.3335 56.3332 14.0002 58.9999 14.0002ZM20.6666 0.66684C26.3332 0.66684 30.6666 5.00017 30.6666 10.6668C30.6666 16.3335 26.3332 20.6668 20.6666 20.6668C14.9999 20.6668 10.6666 16.3335 10.6666 10.6668C10.6666 5.00017 14.9999 0.66684 20.6666 0.66684ZM47.3332 4.00017C49.3332 4.00017 50.6666 5.33351 50.6666 7.33351C50.6666 9.33351 49.3332 10.6668 47.3332 10.6668C45.3332 10.6668 43.9999 9.33351 43.9999 7.33351C43.9999 5.33351 45.3332 4.00017 47.3332 4.00017Z" fill="#792650"/>
</svg>
