<svg width="43" height="53" viewBox="0 0 43 53" fill="none" xmlns="http://www.w3.org/2000/svg">
<path d="M0.5 2.49927C0.5 1.38063 1.37577 0.5 2.42426 0.5H40.5757C41.6242 0.5 42.5 1.38063 42.5 2.49928V49.7475C42.5 50.8661 41.6242 51.7468 40.5757 51.7468H2.42426C1.37578 51.7468 0.5 50.8661 0.5 49.7475V2.49927Z" fill="#792650" fill-opacity="0.25" stroke="#792650"/>
<rect x="8.39014" y="46.8039" width="2.09756" height="5.19608" fill="#792650"/>
<rect x="11.5366" y="46.8039" width="2.09756" height="5.19608" fill="#792650"/>
<rect x="17.8291" y="46.8039" width="2.09756" height="5.19608" fill="#792650"/>
<rect x="20.9756" y="46.8039" width="2.09756" height="5.19608" fill="#792650"/>
<rect x="24.1221" y="46.8039" width="2.09756" height="5.19608" fill="#792650"/>
<rect x="27.2681" y="46.8039" width="2.09756" height="5.19608" fill="#792650"/>
<rect x="30.4146" y="46.8039" width="2.09756" height="5.19608" fill="#792650"/>
<rect x="33.561" y="46.8039" width="2.09756" height="5.19608" fill="#792650"/>
<rect x="4" y="4" width="35" height="33" rx="2" fill="white"/>
<rect x="4.5" y="4.5" width="34" height="32" rx="1.5" stroke="white" stroke-opacity="0.45"/>
<rect x="5" y="5" width="33" height="31" rx="2" fill="white"/>
<rect x="5.5" y="5.5" width="32" height="30" rx="1.5" stroke="#792650" stroke-opacity="0.6"/>
<circle cx="3" cy="3" r="1" fill="#792650"/>
<circle cx="3" cy="49" r="1" fill="#792650"/>
<circle cx="40" cy="3" r="1" fill="#792650"/>
<circle cx="40" cy="49" r="1" fill="#792650"/>
<path d="M16.1896 16.366H17.1906V24H16.1896V20.304H12.4166V24H11.4266V16.366H12.4166V19.479H16.1896V16.366ZM19.2146 16.366H21.4146C23.6036 16.366 25.0996 17.004 25.0996 20.183C25.0996 23.131 23.6036 24 21.4146 24H19.2146V16.366ZM20.2046 23.131H21.3926C22.9876 23.131 24.0766 22.482 24.0766 20.183C24.0766 17.752 22.9326 17.224 21.3926 17.224H20.2046V23.131ZM26.906 16.366H29.106C31.295 16.366 32.791 17.004 32.791 20.183C32.791 23.131 31.295 24 29.106 24H26.906V16.366ZM27.896 23.131H29.084C30.679 23.131 31.768 22.482 31.768 20.183C31.768 17.752 30.624 17.224 29.084 17.224H27.896V23.131Z" fill="#792650"/>
</svg>
