<svg width="43" height="53" viewBox="0 0 43 53" fill="none" xmlns="http://www.w3.org/2000/svg">
<path d="M0.5 2.49927C0.5 1.38063 1.37577 0.5 2.42426 0.5H40.5757C41.6242 0.5 42.5 1.38063 42.5 2.49928V49.7475C42.5 50.8661 41.6242 51.7468 40.5757 51.7468H2.42426C1.37578 51.7468 0.5 50.8661 0.5 49.7475V2.49927Z" fill="#E49D11" fill-opacity="0.45" stroke="#E49D11"/>
<rect x="8.39062" y="46.8039" width="2.09756" height="5.19608" fill="#E49D11"/>
<rect x="11.5371" y="46.8039" width="2.09756" height="5.19608" fill="#E49D11"/>
<rect x="17.8291" y="46.8039" width="2.09756" height="5.19608" fill="#E49D11"/>
<rect x="20.9756" y="46.8039" width="2.09756" height="5.19608" fill="#E49D11"/>
<rect x="24.1221" y="46.8039" width="2.09756" height="5.19608" fill="#E49D11"/>
<rect x="27.2686" y="46.8039" width="2.09756" height="5.19608" fill="#E49D11"/>
<rect x="30.4141" y="46.8039" width="2.09756" height="5.19608" fill="#E49D11"/>
<rect x="33.5605" y="46.8039" width="2.09756" height="5.19608" fill="#E49D11"/>
<rect x="4" y="4" width="35" height="33" rx="2" fill="white"/>
<rect x="4.5" y="4.5" width="34" height="32" rx="1.5" stroke="white" stroke-opacity="0.45"/>
<rect x="5" y="5" width="33" height="31" rx="2" fill="white"/>
<rect x="5.5" y="5.5" width="32" height="30" rx="1.5" stroke="#E49D11" stroke-opacity="0.45"/>
<circle cx="3" cy="3" r="1" fill="#E49D11"/>
<circle cx="3" cy="49" r="1" fill="#E49D11"/>
<circle cx="40" cy="3" r="1" fill="#E49D11"/>
<circle cx="40" cy="49" r="1" fill="#E49D11"/>
<path d="M11.0122 23C11.8787 23 12.5595 23.1833 13.0444 23.5606C13.5602 23.9596 13.8593 24.5849 13.9315 25.4259H12.7349C12.6317 24.9515 12.4357 24.6065 12.1675 24.4016C11.8993 24.186 11.4867 24.0889 10.9503 24.0889C10.4861 24.0889 10.1353 24.1536 9.88777 24.2938C9.5783 24.4555 9.43388 24.7251 9.43388 25.0916C9.43388 25.4151 9.59893 25.6846 9.94967 25.8787C10.1044 25.965 10.5273 26.1267 11.2082 26.3531C12.2088 26.6766 12.8484 26.9353 13.1372 27.1078C13.7768 27.5067 14.0966 28.0566 14.0966 28.7682C14.0966 29.4582 13.8387 30.0081 13.3229 30.407C12.8071 30.7951 12.0747 31 11.136 31C10.2282 31 9.51641 30.8167 9.01094 30.4501C8.392 29.9973 8.05158 29.2857 8 28.3046H9.19662C9.27915 28.8868 9.47514 29.3073 9.79493 29.5553C10.0838 29.7709 10.5273 29.8895 11.136 29.8895C11.6724 29.8895 12.1056 29.7925 12.4151 29.6092C12.7246 29.4151 12.8896 29.1671 12.8896 28.8437C12.8896 28.434 12.6524 28.1105 12.1985 27.8733C12.0541 27.7978 11.5795 27.6253 10.7646 27.3666C9.85682 27.0647 9.28946 26.8491 9.07283 26.7197C8.50547 26.3639 8.22695 25.8464 8.22695 25.1671C8.22695 24.4879 8.49515 23.9488 9.0522 23.5606C9.56798 23.1833 10.2179 23 11.0122 23Z" fill="#E49D11"/>
<path d="M20.6386 23.1509H22.0106L24.8268 30.8491H23.5373L22.8668 28.9191H19.7824L19.1119 30.8491H17.8225L20.6386 23.1509ZM20.1435 27.8841H22.5058L21.3504 24.5094H21.3092L20.1435 27.8841Z" fill="#E49D11"/>
<path d="M31.0122 23C31.8787 23 32.5595 23.1833 33.0444 23.5606C33.5602 23.9596 33.8593 24.5849 33.9315 25.4259H32.7349C32.6317 24.9515 32.4357 24.6065 32.1675 24.4016C31.8993 24.186 31.4867 24.0889 30.9503 24.0889C30.4861 24.0889 30.1353 24.1536 29.8878 24.2938C29.5783 24.4555 29.4339 24.7251 29.4339 25.0916C29.4339 25.4151 29.5989 25.6846 29.9497 25.8787C30.1044 25.965 30.5273 26.1267 31.2082 26.3531C32.2088 26.6766 32.8484 26.9353 33.1372 27.1078C33.7768 27.5067 34.0966 28.0566 34.0966 28.7682C34.0966 29.4582 33.8387 30.0081 33.3229 30.407C32.8071 30.7951 32.0747 31 31.136 31C30.2282 31 29.5164 30.8167 29.0109 30.4501C28.392 29.9973 28.0516 29.2857 28 28.3046H29.1966C29.2791 28.8868 29.4751 29.3073 29.7949 29.5553C30.0838 29.7709 30.5273 29.8895 31.136 29.8895C31.6724 29.8895 32.1056 29.7925 32.4151 29.6092C32.7246 29.4151 32.8896 29.1671 32.8896 28.8437C32.8896 28.434 32.6524 28.1105 32.1985 27.8733C32.0541 27.7978 31.5795 27.6253 30.7646 27.3666C29.8568 27.0647 29.2895 26.8491 29.0728 26.7197C28.5055 26.3639 28.2269 25.8464 28.2269 25.1671C28.2269 24.4879 28.4952 23.9488 29.0522 23.5606C29.568 23.1833 30.2179 23 31.0122 23Z" fill="#E49D11"/>
<path d="M11.0096 9C11.7813 9 12.3987 9.17363 12.8424 9.53055C13.3055 9.8971 13.5659 10.4469 13.6334 11.1704H12.8521C12.7653 10.6688 12.5723 10.3022 12.2733 10.0611C11.9646 9.81029 11.5305 9.69453 10.9711 9.69453C10.4598 9.69453 10.0643 9.7717 9.77491 9.94534C9.44694 10.1383 9.28295 10.4276 9.28295 10.8231C9.28295 11.1704 9.47588 11.4502 9.87138 11.6624C10.045 11.7588 10.4694 11.9035 11.135 12.0965C12.0418 12.3666 12.6399 12.5884 12.9292 12.762C13.4984 13.1093 13.7878 13.5916 13.7878 14.2186C13.7878 14.8167 13.5466 15.299 13.0643 15.6463C12.582 15.9839 11.9357 16.1575 11.1157 16.1575C10.3055 16.1575 9.66881 15.9839 9.20578 15.6366C8.66559 15.2218 8.36656 14.5948 8.30868 13.746H9.09003C9.15755 14.344 9.36977 14.7878 9.71704 15.0675C10.0354 15.3183 10.4984 15.4534 11.1157 15.4534C11.6752 15.4534 12.1383 15.3473 12.4855 15.135C12.8328 14.9228 13.0064 14.6334 13.0064 14.2669C13.0064 13.8328 12.7749 13.4952 12.3215 13.254C12.1286 13.1383 11.6366 12.9743 10.8649 12.7524C10.0354 12.5016 9.50482 12.3087 9.28295 12.1929C8.75241 11.8842 8.49196 11.4405 8.49196 10.8617C8.49196 10.2637 8.74276 9.79099 9.25402 9.46302C9.70739 9.15434 10.2958 9 11.0096 9Z" fill="#E49D11"/>
<path d="M17.1045 9C17.8762 9 18.4936 9.17363 18.9373 9.53055C19.4003 9.8971 19.6608 10.4469 19.7283 11.1704H18.9469C18.8601 10.6688 18.6672 10.3022 18.3682 10.0611C18.0595 9.81029 17.6254 9.69453 17.0659 9.69453C16.5547 9.69453 16.1592 9.7717 15.8698 9.94534C15.5418 10.1383 15.3778 10.4276 15.3778 10.8231C15.3778 11.1704 15.5707 11.4502 15.9662 11.6624C16.1399 11.7588 16.5643 11.9035 17.2299 12.0965C18.1367 12.3666 18.7347 12.5884 19.0241 12.762C19.5932 13.1093 19.8826 13.5916 19.8826 14.2186C19.8826 14.8167 19.6415 15.299 19.1592 15.6463C18.6768 15.9839 18.0305 16.1575 17.2106 16.1575C16.4003 16.1575 15.7637 15.9839 15.3006 15.6366C14.7605 15.2218 14.4614 14.5948 14.4035 13.746H15.1849C15.2524 14.344 15.4646 14.7878 15.8119 15.0675C16.1302 15.3183 16.5932 15.4534 17.2106 15.4534C17.7701 15.4534 18.2331 15.3473 18.5804 15.135C18.9276 14.9228 19.1013 14.6334 19.1013 14.2669C19.1013 13.8328 18.8698 13.4952 18.4164 13.254C18.2235 13.1383 17.7315 12.9743 16.9598 12.7524C16.1302 12.5016 15.5997 12.3087 15.3778 12.1929C14.8473 11.8842 14.5868 11.4405 14.5868 10.8617C14.5868 10.2637 14.8376 9.79099 15.3489 9.46302C15.8023 9.15434 16.3907 9 17.1045 9Z" fill="#E49D11"/>
<path d="M20.8843 9.13505H23.3537C24.4437 9.13505 25.2637 9.44373 25.8232 10.0804C26.3344 10.6592 26.5949 11.4984 26.5949 12.5788C26.5949 13.6399 26.3151 14.4791 25.7653 15.0772C25.1865 15.7042 24.3569 16.0225 23.2765 16.0225H20.8843V9.13505ZM21.6753 9.81993V15.3376H23.1415C24.0386 15.3376 24.7138 15.0964 25.1672 14.6238C25.5916 14.1608 25.8135 13.4759 25.8135 12.5788C25.8135 11.6527 25.6109 10.9678 25.2154 10.5241C24.791 10.0514 24.1351 9.81993 23.2283 9.81993H21.6753Z" fill="#E49D11"/>
<path d="M8 18.7492H27V19.3087H8V18.7492Z" fill="#E49D11"/>
</svg>
