<svg width="43" height="53" viewBox="0 0 43 53" fill="none" xmlns="http://www.w3.org/2000/svg">
<path d="M0.5 2.49927C0.5 1.38063 1.37577 0.5 2.42426 0.5H40.5757C41.6242 0.5 42.5 1.38063 42.5 2.49928V49.7475C42.5 50.8661 41.6242 51.7468 40.5757 51.7468H2.42426C1.37578 51.7468 0.5 50.8661 0.5 49.7475V2.49927Z" fill="#4AB2BA" fill-opacity="0.45" stroke="#4AB2BA"/>
<rect x="8.39062" y="46.8039" width="2.09756" height="5.19608" fill="#4AB2BA"/>
<rect x="11.5371" y="46.8039" width="2.09756" height="5.19608" fill="#4AB2BA"/>
<rect x="17.8291" y="46.8039" width="2.09756" height="5.19608" fill="#4AB2BA"/>
<rect x="20.9756" y="46.8039" width="2.09756" height="5.19608" fill="#4AB2BA"/>
<rect x="24.1221" y="46.8039" width="2.09756" height="5.19608" fill="#4AB2BA"/>
<rect x="27.2686" y="46.8039" width="2.09756" height="5.19608" fill="#4AB2BA"/>
<rect x="30.4141" y="46.8039" width="2.09756" height="5.19608" fill="#4AB2BA"/>
<rect x="33.5605" y="46.8039" width="2.09756" height="5.19608" fill="#4AB2BA"/>
<rect x="4" y="4" width="35" height="33" rx="2" fill="white"/>
<rect x="4.5" y="4.5" width="34" height="32" rx="1.5" stroke="white" stroke-opacity="0.45"/>
<rect x="5.5" y="5.5" width="32" height="30" rx="1.5" fill="white" stroke="#AEDCE0"/>
<circle cx="3" cy="3" r="1" fill="#44ADB5"/>
<circle cx="3" cy="49" r="1" fill="#44ADB5"/>
<circle cx="40" cy="3" r="1" fill="#44ADB5"/>
<circle cx="40" cy="49" r="1" fill="#44ADB5"/>
<path d="M10.0122 23C10.8787 23 11.5595 23.1833 12.0444 23.5606C12.5602 23.9596 12.8593 24.5849 12.9315 25.4259H11.7349C11.6317 24.9515 11.4357 24.6065 11.1675 24.4016C10.8993 24.186 10.4867 24.0889 9.95029 24.0889C9.48608 24.0889 9.13535 24.1536 8.88777 24.2938C8.5783 24.4555 8.43388 24.7251 8.43388 25.0916C8.43388 25.4151 8.59893 25.6846 8.94967 25.8787C9.1044 25.965 9.52734 26.1267 10.2082 26.3531C11.2088 26.6766 11.8484 26.9353 12.1372 27.1078C12.7768 27.5067 13.0966 28.0566 13.0966 28.7682C13.0966 29.4582 12.8387 30.0081 12.3229 30.407C11.8071 30.7951 11.0747 31 10.136 31C9.22819 31 8.51641 30.8167 8.01094 30.4501C7.392 29.9973 7.05158 29.2857 7 28.3046H8.19662C8.27915 28.8868 8.47514 29.3073 8.79493 29.5553C9.08377 29.7709 9.52734 29.8895 10.136 29.8895C10.6724 29.8895 11.1056 29.7925 11.4151 29.6092C11.7246 29.4151 11.8896 29.1671 11.8896 28.8437C11.8896 28.434 11.6524 28.1105 11.1985 27.8733C11.0541 27.7978 10.5795 27.6253 9.7646 27.3666C8.85682 27.0647 8.28946 26.8491 8.07283 26.7197C7.50547 26.3639 7.22695 25.8464 7.22695 25.1671C7.22695 24.4879 7.49515 23.9488 8.0522 23.5606C8.56798 23.1833 9.21787 23 10.0122 23Z" fill="#4AB2BA"/>
<path d="M16.6386 23.1509H18.0106L20.8268 30.8491H19.5373L18.8668 28.9191H15.7824L15.1119 30.8491H13.8225L16.6386 23.1509ZM16.1435 27.8841H18.5058L17.3504 24.5094H17.3092L16.1435 27.8841Z" fill="#4AB2BA"/>
<path d="M21.3912 23.1509H27.4259V24.2291H25.012V30.8491H23.8051V24.2291H21.3912V23.1509Z" fill="#4AB2BA"/>
<path d="M30.8118 23.1509H32.1838L35 30.8491H33.7105L33.04 28.9191H29.9556L29.2851 30.8491H27.9956L30.8118 23.1509ZM30.3167 27.8841H32.679L31.5236 24.5094H31.4824L30.3167 27.8841Z" fill="#4AB2BA"/>
<path d="M10.0096 9C10.7813 9 11.3987 9.17363 11.8424 9.53055C12.3055 9.8971 12.5659 10.4469 12.6334 11.1704H11.8521C11.7653 10.6688 11.5723 10.3022 11.2733 10.0611C10.9646 9.81029 10.5305 9.69453 9.97105 9.69453C9.4598 9.69453 9.0643 9.7717 8.77491 9.94534C8.44694 10.1383 8.28295 10.4276 8.28295 10.8231C8.28295 11.1704 8.47588 11.4502 8.87138 11.6624C9.04501 11.7588 9.46945 11.9035 10.135 12.0965C11.0418 12.3666 11.6399 12.5884 11.9292 12.762C12.4984 13.1093 12.7878 13.5916 12.7878 14.2186C12.7878 14.8167 12.5466 15.299 12.0643 15.6463C11.582 15.9839 10.9357 16.1575 10.1157 16.1575C9.30546 16.1575 8.66881 15.9839 8.20578 15.6366C7.66559 15.2218 7.36656 14.5948 7.30868 13.746H8.09003C8.15755 14.344 8.36977 14.7878 8.71704 15.0675C9.03536 15.3183 9.49839 15.4534 10.1157 15.4534C10.6752 15.4534 11.1383 15.3473 11.4855 15.135C11.8328 14.9228 12.0064 14.6334 12.0064 14.2669C12.0064 13.8328 11.7749 13.4952 11.3215 13.254C11.1286 13.1383 10.6366 12.9743 9.86494 12.7524C9.03536 12.5016 8.50482 12.3087 8.28295 12.1929C7.75241 11.8842 7.49196 11.4405 7.49196 10.8617C7.49196 10.2637 7.74276 9.79099 8.25402 9.46302C8.70739 9.15434 9.29581 9 10.0096 9Z" fill="#4AB2BA"/>
<path d="M16.1045 9C16.8762 9 17.4936 9.17363 17.9373 9.53055C18.4003 9.8971 18.6608 10.4469 18.7283 11.1704H17.9469C17.8601 10.6688 17.6672 10.3022 17.3682 10.0611C17.0595 9.81029 16.6254 9.69453 16.0659 9.69453C15.5547 9.69453 15.1592 9.7717 14.8698 9.94534C14.5418 10.1383 14.3778 10.4276 14.3778 10.8231C14.3778 11.1704 14.5707 11.4502 14.9662 11.6624C15.1399 11.7588 15.5643 11.9035 16.2299 12.0965C17.1367 12.3666 17.7347 12.5884 18.0241 12.762C18.5932 13.1093 18.8826 13.5916 18.8826 14.2186C18.8826 14.8167 18.6415 15.299 18.1592 15.6463C17.6768 15.9839 17.0305 16.1575 16.2106 16.1575C15.4003 16.1575 14.7637 15.9839 14.3006 15.6366C13.7605 15.2218 13.4614 14.5948 13.4035 13.746H14.1849C14.2524 14.344 14.4646 14.7878 14.8119 15.0675C15.1302 15.3183 15.5932 15.4534 16.2106 15.4534C16.7701 15.4534 17.2331 15.3473 17.5804 15.135C17.9276 14.9228 18.1013 14.6334 18.1013 14.2669C18.1013 13.8328 17.8698 13.4952 17.4164 13.254C17.2235 13.1383 16.7315 12.9743 15.9598 12.7524C15.1302 12.5016 14.5997 12.3087 14.3778 12.1929C13.8473 11.8842 13.5868 11.4405 13.5868 10.8617C13.5868 10.2637 13.8376 9.79099 14.3489 9.46302C14.8023 9.15434 15.3907 9 16.1045 9Z" fill="#4AB2BA"/>
<path d="M19.8843 9.13505H22.3537C23.4437 9.13505 24.2637 9.44373 24.8232 10.0804C25.3344 10.6592 25.5949 11.4984 25.5949 12.5788C25.5949 13.6399 25.3151 14.4791 24.7653 15.0772C24.1865 15.7042 23.3569 16.0225 22.2765 16.0225H19.8843V9.13505ZM20.6753 9.81993V15.3376H22.1415C23.0386 15.3376 23.7138 15.0964 24.1672 14.6238C24.5916 14.1608 24.8135 13.4759 24.8135 12.5788C24.8135 11.6527 24.6109 10.9678 24.2154 10.5241C23.791 10.0514 23.1351 9.81993 22.2283 9.81993H20.6753Z" fill="#4AB2BA"/>
<path d="M7 18.7492H26V19.3087H7V18.7492Z" fill="#4AB2BA"/>
</svg>
