<svg width="46" height="40" viewBox="0 0 46 40" fill="none" xmlns="http://www.w3.org/2000/svg">
<path d="M8.56896 1.75392L8.56893 1.75385L8.56331 1.75628C6.97714 2.44017 5.52821 3.39881 4.31164 4.6335C3.09685 5.86636 2.15998 7.28455 1.55073 8.8876L1.55065 8.88757L1.54852 8.89365C0.989134 10.4881 0.708668 12.1753 0.75493 13.8643V14.4882C0.75493 17.4499 1.5945 20.4928 3.30677 23.6588C4.74157 26.3274 6.82041 29.0348 9.21784 31.4679L9.21939 31.4695C11.4794 33.7232 13.9263 35.619 16.3773 37.0203C18.13 38.0568 20.7907 39.25 23.1058 39.25C24.7416 39.25 26.6843 38.6725 28.7487 37.6383C30.8166 36.6024 33.0231 35.0999 35.1908 33.2294L35.1915 33.2287C39.803 29.2177 43.2737 24.2509 44.712 19.5807L44.7124 19.5791C44.9854 18.672 44.4346 17.7804 43.5374 17.5203C43.3632 17.4645 43.1931 17.4646 43.0636 17.4646L43.0516 17.4646C42.3039 17.4646 41.6548 17.9356 41.4376 18.6254L41.4374 18.6261C40.1705 22.6942 37.0844 27.1378 32.9384 30.7446C31.4592 32.0122 29.6622 33.3013 27.9027 34.272C26.1339 35.2478 24.4382 35.8821 23.1517 35.8821C21.6662 35.8821 19.665 35.0523 17.5799 33.7683C15.5056 32.4909 13.3883 30.789 11.6811 29.0983L11.6799 29.0971C10.1535 27.6054 8.76101 25.9415 7.58943 24.1486H13.2934C14.0398 24.1486 14.688 23.6793 14.9063 22.9915L16.3639 18.7948L19.2468 27.2057C19.4654 27.8466 20.0577 28.256 20.6813 28.3576L20.7013 28.3608H20.7215H20.859C21.4479 28.3608 22.0341 28.0489 22.356 27.5247L22.356 27.5247L22.3595 27.5187L25.4177 22.2147L26.2465 23.4121C26.2467 23.4123 26.2468 23.4126 26.247 23.4128C26.5708 23.887 27.108 24.1486 27.6452 24.1486H32.0012C32.9591 24.1486 33.7185 23.4147 33.7185 22.4646C33.7185 21.5146 32.9591 20.7807 32.0012 20.7807H28.5538L26.6582 18.1095C26.3343 17.6361 25.7975 17.375 25.2609 17.375H25.215C24.6097 17.375 24.0743 17.7469 23.8064 18.2169C23.8061 18.2174 23.8058 18.2179 23.8055 18.2184L21.2401 22.5857L17.9785 13.0657C17.7604 12.3776 17.1121 11.908 16.3655 11.908C15.6193 11.908 14.9713 12.3771 14.7528 13.0646L12.016 20.8255H6.18625C6.02271 20.8255 5.86552 20.8725 5.74178 20.9125L5.72335 20.8765C4.68284 18.6202 4.18949 16.4617 4.18949 14.4882V13.7712H4.18985L4.18912 13.7578C4.05556 11.2777 5.03534 8.78985 6.77906 6.95402C8.56624 5.12069 11.0232 4.07311 13.6144 4.07311C16.9694 4.07311 20.0039 5.73313 21.6991 8.56702L21.7029 8.57341L21.7071 8.57956C22.0244 9.04467 22.5571 9.36085 23.1517 9.36085C23.7462 9.36085 24.2789 9.04467 24.5962 8.57956L24.5963 8.5796L24.5995 8.57464C25.4484 7.26471 26.6087 6.17494 28.0355 5.43414L28.0355 5.43416L28.0384 5.43261C29.4231 4.6905 30.9873 4.29717 32.5973 4.29717C34.7871 4.29717 36.8872 5.03952 38.5856 6.39359C40.2832 7.74699 41.4436 9.62333 41.89 11.6721C42.054 12.4695 42.7604 12.9906 43.556 12.9906L43.5672 12.9906C43.6483 12.9907 43.7779 12.9909 43.9124 12.9334C44.7969 12.7171 45.3851 11.8888 45.2234 10.9933L45.2236 10.9933L45.2219 10.9853C44.6135 8.14992 43.0229 5.59019 40.7315 3.76212C38.4399 1.93391 35.5419 0.929245 32.5973 0.929245H32.5514C29.0225 0.929245 25.5837 2.37159 23.1979 4.90344C20.7678 2.28305 17.2829 0.75 13.6144 0.75C11.8831 0.75 10.155 1.11569 8.56896 1.75392Z" fill="#7aa660" stroke="#7aa660" stroke-width="0.5"/>
</svg>
