<svg width="20" height="20" viewBox="0 0 20 20" fill="none" xmlns="http://www.w3.org/2000/svg">
<path d="M9.9998 10.6557C11.5292 10.6557 12.9578 10.517 14.2866 10.2397C15.6155 9.96211 16.6647 9.55241 17.432 9.01051V10.6557C17.432 11.1014 17.0994 11.5143 16.435 11.8948C15.7705 12.2753 14.8676 12.5776 13.7251 12.7999C12.5838 13.022 11.3416 13.1337 9.9998 13.1337C8.6579 13.1337 7.4158 13.022 6.2734 12.7999C5.13201 12.5765 4.22911 12.2753 3.56361 11.8948C2.89911 11.5143 2.56641 11.1014 2.56641 10.6557V9.01041C3.33381 9.55231 4.38311 9.96201 5.71191 10.2396C7.0419 10.517 8.4705 10.6557 9.9998 10.6557ZM9.9998 14.2986C11.5292 14.2986 12.9578 14.1599 14.2866 13.8824C15.6155 13.6051 16.6647 13.1953 17.432 12.6533V14.2986C17.432 14.7441 17.0994 15.1572 16.435 15.5377C15.7705 15.918 14.8676 16.2205 13.7251 16.4426C12.5838 16.6649 11.3416 16.7764 9.9998 16.7764C8.6579 16.7764 7.4158 16.6649 6.2734 16.4426C5.13101 16.2205 4.22801 15.918 3.56361 15.5377C2.89911 15.1572 2.56641 14.7441 2.56641 14.2986V12.6533C3.33381 13.1953 4.38311 13.6051 5.71191 13.8824C7.0419 14.16 8.4705 14.2986 9.9998 14.2986ZM9.9998 3.22351C11.3416 3.22351 12.5838 3.33521 13.7263 3.55741C14.8687 3.77961 15.7716 4.08201 16.4361 4.46241C17.1004 4.84291 17.4332 5.25581 17.4332 5.70131V6.94031C17.4332 7.38581 17.1004 7.79861 16.4361 8.17921C15.7716 8.55971 14.8687 8.86101 13.7263 9.08431C12.5839 9.30631 11.3417 9.41701 9.9998 9.41701C8.6579 9.41701 7.4158 9.30521 6.2734 9.08311C5.13101 8.86091 4.22801 8.55851 3.56361 8.17801C2.89911 7.79751 2.56641 7.38471 2.56641 6.93911V5.70131C2.56641 5.25581 2.89921 4.84291 3.56361 4.46241C4.22801 4.08201 5.13091 3.77951 6.2734 3.55741C7.4159 3.33521 8.658 3.22351 9.9998 3.22351Z" fill="#070707" fill-opacity="0.65"/>
</svg>
