<svg width="40" height="40" viewBox="0 0 40 40" fill="none" xmlns="http://www.w3.org/2000/svg">
<rect width="40" height="40" rx="2" fill="#003B67"/>
<path d="M19.9997 20.9842C22.2938 20.9842 24.4367 20.7762 26.4299 20.3602C28.4233 19.9438 29.9971 19.3293 31.148 18.5164V20.9842C31.148 21.6528 30.6491 22.2721 29.6525 22.8429C28.6558 23.4136 27.3014 23.8671 25.5877 24.2005C23.8757 24.5337 22.0124 24.7012 19.9997 24.7012C17.9869 24.7012 16.1237 24.5337 14.4101 24.2005C12.698 23.8654 11.3437 23.4136 10.3454 22.8429C9.34866 22.2721 8.84961 21.6528 8.84961 20.9842V18.5163C10.0007 19.3291 11.5747 19.9437 13.5679 20.3601C15.5629 20.7762 17.7058 20.9842 19.9997 20.9842ZM19.9997 26.4486C22.2938 26.4486 24.4367 26.2405 26.4299 25.8243C28.4233 25.4083 29.9971 24.7936 31.148 23.9806V26.4486C31.148 27.1168 30.6491 27.7365 29.6525 28.3072C28.6558 28.8777 27.3014 29.3314 25.5877 29.6646C23.8757 29.998 22.0124 30.1653 19.9997 30.1653C17.9869 30.1653 16.1237 29.998 14.4101 29.6646C12.6965 29.3314 11.342 28.8777 10.3454 28.3072C9.34866 27.7365 8.84961 27.1168 8.84961 26.4486V23.9806C10.0007 24.7936 11.5747 25.4083 13.5679 25.8243C15.5629 26.2407 17.7058 26.4486 19.9997 26.4486ZM19.9997 9.83594C22.0124 9.83594 23.8757 10.0035 25.5895 10.3368C27.3031 10.6701 28.6574 11.1237 29.6542 11.6943C30.6506 12.265 31.1498 12.8844 31.1498 13.5526V15.4111C31.1498 16.0794 30.6506 16.6986 29.6542 17.2695C28.6574 17.8402 27.3031 18.2922 25.5895 18.6271C23.8759 18.9601 22.0126 19.1262 19.9997 19.1262C17.9869 19.1262 16.1237 18.9585 14.4101 18.6253C12.6965 18.292 11.342 17.8384 10.3454 17.2677C9.34866 16.6969 8.84961 16.0777 8.84961 15.4093V13.5526C8.84961 12.8844 9.34881 12.265 10.3454 11.6943C11.342 11.1237 12.6964 10.6699 14.4101 10.3368C16.1239 10.0035 17.987 9.83594 19.9997 9.83594Z" fill="white"/>
</svg>
