<svg width="30" height="30" viewBox="0 0 30 30" fill="none" xmlns="http://www.w3.org/2000/svg">
<path d="M14.9997 15.9836C17.2938 15.9836 19.4367 15.7755 21.4299 15.3596C23.4233 14.9432 24.9971 14.3286 26.148 13.5158V15.9836C26.148 16.6521 25.6491 17.2715 24.6525 17.8422C23.6558 18.413 22.3014 18.8664 20.5877 19.1999C18.8757 19.533 17.0124 19.7006 14.9997 19.7006C12.9869 19.7006 11.1237 19.533 9.41011 19.1999C7.69801 18.8648 6.34366 18.413 5.34541 17.8422C4.34866 17.2715 3.84961 16.6521 3.84961 15.9836V13.5156C5.00071 14.3285 6.57466 14.943 8.56786 15.3594C10.5629 15.7755 12.7058 15.9836 14.9997 15.9836ZM14.9997 21.4479C17.2938 21.4479 19.4367 21.2399 21.4299 20.8236C23.4233 20.4077 24.9971 19.793 26.148 18.98V21.4479C26.148 22.1162 25.6491 22.7358 24.6525 23.3066C23.6558 23.877 22.3014 24.3308 20.5877 24.6639C18.8757 24.9974 17.0124 25.1646 14.9997 25.1646C12.9869 25.1646 11.1237 24.9974 9.41011 24.6639C7.69651 24.3308 6.34201 23.877 5.34541 23.3066C4.34866 22.7358 3.84961 22.1162 3.84961 21.4479V18.98C5.00071 19.793 6.57466 20.4077 8.56786 20.8236C10.5629 21.24 12.7058 21.4479 14.9997 21.4479ZM14.9997 4.83527C17.0124 4.83527 18.8757 5.00282 20.5895 5.33612C22.3031 5.66942 23.6574 6.12302 24.6542 6.69362C25.6506 7.26437 26.1498 7.88372 26.1498 8.55197V10.4105C26.1498 11.0787 25.6506 11.6979 24.6542 12.2688C23.6574 12.8396 22.3031 13.2915 20.5895 13.6265C18.8759 13.9595 17.0126 14.1255 14.9997 14.1255C12.9869 14.1255 11.1237 13.9578 9.41011 13.6247C7.69651 13.2914 6.34201 12.8378 5.34541 12.267C4.34866 11.6963 3.84961 11.0771 3.84961 10.4087V8.55197C3.84961 7.88372 4.34881 7.26437 5.34541 6.69362C6.34201 6.12302 7.69636 5.66927 9.41011 5.33612C11.1239 5.00282 12.987 4.83527 14.9997 4.83527Z" fill="white"/>
</svg>
